<?xml version="1.0" encoding="UTF-8" standalone="no"?>
<svg width="139px" height="122px" viewBox="0 0 139 122" version="1.1" xmlns="http://www.w3.org/2000/svg" xmlns:xlink="http://www.w3.org/1999/xlink">
    <!-- Generator: Sketch 3.6.1 (26313) - http://www.bohemiancoding.com/sketch -->
    <title>alert</title>
    <desc>Created with Sketch.</desc>
    <defs></defs>
    <g id="Page-1" stroke="none" stroke-width="1" fill="none" fill-rule="evenodd">
        <g id="Accounting-course-landing-page-hifi" transform="translate(-650.000000, -3228.000000)" stroke="#B9EEFF" stroke-width="2">
            <g id="alert" transform="translate(650.000000, 3228.000000)">
                <path d="M65.5117887,2.87260944 C67.714417,-0.955406633 71.2831324,-0.959665735 73.4882113,2.87260944 L138.011789,115.010137 C140.214417,118.838153 138.41571,121.941373 133.99763,121.941373 L5.00237022,121.941373 C0.582783187,121.941373 -1.21686764,118.842412 0.98821133,115.010137 L65.5117887,2.87260944 Z" id="Triangle-2" stroke-linecap="round" stroke-linejoin="round"></path>
                <path d="M71.0794314,84.1220736 L67.0158863,84.1220736 L67.0158863,55 L71.0794314,55 L71.0794314,84.1220736 Z M72.0953177,96.9523411 C72.0953177,97.7424789 71.8131299,98.4479484 71.2487458,99.0687709 C70.6843617,99.6895934 69.9506734,100 69.0476589,100 C68.1446443,100 67.410956,99.6895934 66.8465719,99.0687709 C66.2821878,98.4479484 66,97.7424789 66,96.9523411 C66,96.1622034 66.2821878,95.4567339 66.8465719,94.8359114 C67.410956,94.2150889 68.1446443,93.9046823 69.0476589,93.9046823 C69.9506734,93.9046823 70.6843617,94.2150889 71.2487458,94.8359114 C71.8131299,95.4567339 72.0953177,96.1622034 72.0953177,96.9523411 L72.0953177,96.9523411 Z" id="!"></path>
            </g>
        </g>
    </g>
</svg>