<?xml version="1.0" encoding="UTF-8" standalone="no"?>
<svg width="44px" height="61px" viewBox="0 0 44 61" version="1.1" xmlns="http://www.w3.org/2000/svg" xmlns:xlink="http://www.w3.org/1999/xlink">
    <!-- Generator: Sketch 3.6.1 (26313) - http://www.bohemiancoding.com/sketch -->
    <title>calculator</title>
    <desc>Created with Sketch.</desc>
    <defs></defs>
    <g id="Page-1" stroke="none" stroke-width="1" fill="none" fill-rule="evenodd">
        <g id="Accounting-course-landing-page-hifi" transform="translate(-317.000000, -1354.000000)" fill="#0DBDFF">
            <g id="calculator" transform="translate(317.000000, 1354.000000)">
                <path d="M9.75,2.662 C5.476,2.662 2,6.14 2,10.42 L2,50.92 C2,55.18 5.476,58.662 9.75,58.662 L34.25,58.662 C38.524,58.662 42,55.18 42,50.92 L42,10.42 C42,6.14 38.524,2.662 34.25,2.662 L9.75,2.662 L9.75,2.662 Z M34.25,60.66 L9.75,60.66 C4.374,60.66 0,56.282 0,50.92 L0,10.42 C0,5.042 4.374,0.66 9.75,0.66 L34.25,0.66 C39.626,0.66 44,5.042 44,10.42 L44,50.92 C44,56.282 39.626,60.66 34.25,60.66 L34.25,60.66 Z" id="Fill-2048"></path>
                <path d="M15.75,10.662 C11.476,10.662 8,14.14 8,18.42 L8,20.92 C8,25.18 11.476,28.662 15.75,28.662 L28.25,28.662 C32.524,28.662 36,25.18 36,20.92 L36,18.42 C36,14.14 32.524,10.662 28.25,10.662 L15.75,10.662 L15.75,10.662 Z M28.25,30.66 L15.75,30.66 C10.374,30.66 6,26.282 6,20.92 L6,18.42 C6,13.042 10.374,8.662 15.75,8.662 L28.25,8.662 C33.626,8.662 38,13.042 38,18.42 L38,20.92 C38,26.282 33.626,30.66 28.25,30.66 L28.25,30.66 Z" id="Fill-2049"></path>
                <path d="M12.426,38.92 C11.598,38.92 10.926,39.58 10.926,40.42 C10.926,41.242 11.598,41.92 12.426,41.92 C13.252,41.92 13.926,41.242 13.926,40.42 C13.926,39.58 13.252,38.92 12.426,38.92 L12.426,38.92 Z M12.426,43.92 C10.496,43.92 8.926,42.34 8.926,40.42 C8.926,38.48 10.496,36.92 12.426,36.92 C14.356,36.92 15.926,38.48 15.926,40.42 C15.926,42.34 14.356,43.92 12.426,43.92 L12.426,43.92 Z" id="Fill-2050"></path>
                <path d="M22.426,38.92 C21.598,38.92 20.926,39.58 20.926,40.42 C20.926,41.242 21.598,41.92 22.426,41.92 C23.252,41.92 23.926,41.242 23.926,40.42 C23.926,39.58 23.252,38.92 22.426,38.92 L22.426,38.92 Z M22.426,43.92 C20.496,43.92 18.926,42.34 18.926,40.42 C18.926,38.48 20.496,36.92 22.426,36.92 C24.356,36.92 25.926,38.48 25.926,40.42 C25.926,42.34 24.356,43.92 22.426,43.92 L22.426,43.92 Z" id="Fill-2051"></path>
                <path d="M32.426,38.92 C31.598,38.92 30.926,39.58 30.926,40.42 C30.926,41.242 31.598,41.92 32.426,41.92 C33.252,41.92 33.926,41.242 33.926,40.42 C33.926,39.58 33.252,38.92 32.426,38.92 L32.426,38.92 Z M32.426,43.92 C30.496,43.92 28.926,42.34 28.926,40.42 C28.926,38.48 30.496,36.92 32.426,36.92 C34.356,36.92 35.926,38.48 35.926,40.42 C35.926,42.34 34.356,43.92 32.426,43.92 L32.426,43.92 Z" id="Fill-2052"></path>
                <path d="M12.426,48.92 C11.598,48.92 10.926,49.582 10.926,50.42 C10.926,51.24 11.598,51.92 12.426,51.92 C13.252,51.92 13.926,51.24 13.926,50.42 C13.926,49.582 13.252,48.92 12.426,48.92 L12.426,48.92 Z M12.426,53.92 C10.496,53.92 8.926,52.34 8.926,50.42 C8.926,48.48 10.496,46.92 12.426,46.92 C14.356,46.92 15.926,48.48 15.926,50.42 C15.926,52.34 14.356,53.92 12.426,53.92 L12.426,53.92 Z" id="Fill-2053"></path>
                <path d="M22.426,48.92 C21.598,48.92 20.926,49.582 20.926,50.42 C20.926,51.24 21.598,51.92 22.426,51.92 C23.252,51.92 23.926,51.24 23.926,50.42 C23.926,49.582 23.252,48.92 22.426,48.92 L22.426,48.92 Z M22.426,53.92 C20.496,53.92 18.926,52.34 18.926,50.42 C18.926,48.48 20.496,46.92 22.426,46.92 C24.356,46.92 25.926,48.48 25.926,50.42 C25.926,52.34 24.356,53.92 22.426,53.92 L22.426,53.92 Z" id="Fill-2054"></path>
                <path d="M32.426,48.92 C31.598,48.92 30.926,49.582 30.926,50.42 C30.926,51.24 31.598,51.92 32.426,51.92 C33.252,51.92 33.926,51.24 33.926,50.42 C33.926,49.582 33.252,48.92 32.426,48.92 L32.426,48.92 Z M32.426,53.92 C30.496,53.92 28.926,52.34 28.926,50.42 C28.926,48.48 30.496,46.92 32.426,46.92 C34.356,46.92 35.926,48.48 35.926,50.42 C35.926,52.34 34.356,53.92 32.426,53.92 L32.426,53.92 Z" id="Fill-2055"></path>
            </g>
        </g>
    </g>
</svg>