<?xml version="1.0" encoding="UTF-8" standalone="no"?>
<svg width="60px" height="43px" viewBox="0 0 60 43" version="1.1" xmlns="http://www.w3.org/2000/svg" xmlns:xlink="http://www.w3.org/1999/xlink">
    <!-- Generator: Sketch 3.6.1 (26313) - http://www.bohemiancoding.com/sketch -->
    <title>card</title>
    <desc>Created with Sketch.</desc>
    <defs></defs>
    <g id="Page-1" stroke="none" stroke-width="1" fill="none" fill-rule="evenodd">
        <g id="Accounting-course-landing-page-hifi" transform="translate(-700.000000, -829.000000)" fill="#0DBDFF">
            <g id="card" transform="translate(700.000000, 829.000000)">
                <path d="M9.75,2.66 C5.476,2.66 2,6.14 2,10.42 L2,32.92 C2,37.182 5.476,40.662 9.75,40.662 L50.25,40.662 C54.524,40.662 58,37.182 58,32.92 L58,10.42 C58,6.14 54.524,2.66 50.25,2.66 L9.75,2.66 L9.75,2.66 Z M50.25,42.66 L9.75,42.66 C4.374,42.66 0,38.282 0,32.92 L0,10.42 C0,5.042 4.374,0.66 9.75,0.66 L50.25,0.66 C55.626,0.66 60,5.042 60,10.42 L60,32.92 C60,38.282 55.626,42.66 50.25,42.66 L50.25,42.66 Z" id="Fill-2079"></path>
                <path d="M2,8.66 L58,8.66 L58,14.66 L2,14.66 L2,8.66 Z" id="Fill-2080"></path>
                <path d="M8,22.662 L18,22.662 L18,24.662 L8,24.662 L8,22.662 Z" id="Fill-2081"></path>
                <path d="M8,26.66 L28,26.66 L28,28.66 L8,28.66 L8,26.66 Z" id="Fill-2082"></path>
            </g>
        </g>
    </g>
</svg>