<?xml version="1.0" encoding="UTF-8" standalone="no"?>
<svg width="61px" height="61px" viewBox="0 0 61 61" version="1.1" xmlns="http://www.w3.org/2000/svg" xmlns:xlink="http://www.w3.org/1999/xlink">
    <!-- Generator: Sketch 3.6.1 (26313) - http://www.bohemiancoding.com/sketch -->
    <title>coin</title>
    <desc>Created with Sketch.</desc>
    <defs></defs>
    <g id="Page-1" stroke="none" stroke-width="1" fill="none" fill-rule="evenodd">
        <g id="Accounting-course-landing-page-hifi" transform="translate(-1080.000000, -819.000000)" fill="#0DBDFF">
            <g id="coin" transform="translate(1080.000000, 819.000000)">
                <path d="M39.176,60.162 C30.578,60.162 22.942,54.98 19.724,46.98 C19.518,46.48 19.766,45.902 20.28,45.68 C20.79,45.48 21.374,45.72 21.58,46.242 C24.492,53.48 31.398,58.16 39.176,58.16 C49.652,58.16 58.176,49.64 58.176,39.162 C58.176,31.38 53.496,24.48 46.252,21.56 C45.74,21.362 45.492,20.782 45.698,20.262 C45.904,19.76 46.492,19.5 46.998,19.702 C55.002,22.92 60.176,30.56 60.176,39.162 C60.176,50.742 50.754,60.162 39.176,60.162" id="Fill-2137"></path>
                <path d="M39.176,55.16 C33.318,55.16 27.934,51.94 25.128,46.74 C24.866,46.26 25.046,45.64 25.532,45.38 C26.018,45.122 26.626,45.3 26.888,45.782 C29.344,50.342 34.052,53.16 39.176,53.16 C46.896,53.16 53.176,46.88 53.176,39.162 C53.176,34.042 50.35,29.32 45.802,26.88 C45.316,26.602 45.134,26 45.398,25.522 C45.66,25.042 46.266,24.842 46.752,25.122 C51.948,27.92 55.176,33.3 55.176,39.162 C55.176,47.98 47.998,55.16 39.176,55.16" id="Fill-2138"></path>
                <path d="M20.426,2.66 C10.638,2.66 2.676,10.622 2.676,20.42 C2.676,30.202 10.638,38.16 20.426,38.16 C30.212,38.16 38.176,30.202 38.176,20.42 C38.176,10.622 30.212,2.66 20.426,2.66 L20.426,2.66 Z M20.426,40.16 C9.536,40.16 0.676,31.3 0.676,20.42 C0.676,9.52 9.536,0.66 20.426,0.66 C31.316,0.66 40.176,9.52 40.176,20.42 C40.176,31.3 31.316,40.16 20.426,40.16 L20.426,40.16 Z" id="Fill-2139"></path>
                <path d="M20.426,8.92 C14.084,8.92 8.926,14.06 8.926,20.42 C8.926,26.76 14.084,31.92 20.426,31.92 C26.766,31.92 31.926,26.76 31.926,20.42 C31.926,14.06 26.766,8.92 20.426,8.92 L20.426,8.92 Z M20.426,33.92 C12.982,33.92 6.926,27.862 6.926,20.42 C6.926,12.96 12.982,6.92 20.426,6.92 C27.87,6.92 33.926,12.96 33.926,20.42 C33.926,27.862 27.87,33.92 20.426,33.92 L20.426,33.92 Z" id="Fill-2140"></path>
                <path d="M20.53,27.122 C18.066,27.122 16.41,25.68 16.41,23.52 C16.41,22.98 16.858,22.522 17.41,22.522 C17.962,22.522 18.41,22.98 18.41,23.52 C18.41,24.98 19.892,25.122 20.53,25.122 C21.166,25.122 22.648,24.98 22.648,23.52 C22.648,22.622 22.388,22.442 20.58,21.56 L19.578,21.06 C17.808,20.18 16.41,19.5 16.41,17.282 C16.41,15.162 18.104,13.662 20.53,13.662 C22.968,13.662 24.606,15.122 24.606,17.282 C24.606,17.84 24.158,18.282 23.606,18.282 C23.052,18.282 22.606,17.84 22.606,17.282 C22.606,15.82 21.154,15.66 20.53,15.66 C20.032,15.66 18.41,15.782 18.41,17.282 C18.41,18.18 18.668,18.38 20.464,19.26 L21.464,19.76 C23.244,20.64 24.648,21.32 24.648,23.52 C24.648,25.68 22.994,27.122 20.53,27.122" id="Fill-2141"></path>
                <path d="M20.426,15.162 C19.874,15.162 19.426,14.72 19.426,14.16 L19.426,12.92 C19.426,12.362 19.874,11.92 20.426,11.92 C20.978,11.92 21.426,12.362 21.426,12.92 L21.426,14.16 C21.426,14.72 20.978,15.162 20.426,15.162" id="Fill-2142"></path>
                <path d="M20.426,28.92 C19.874,28.92 19.426,28.46 19.426,27.92 L19.426,26.122 C19.426,25.582 19.874,25.122 20.426,25.122 C20.978,25.122 21.426,25.582 21.426,26.122 L21.426,27.92 C21.426,28.46 20.978,28.92 20.426,28.92" id="Fill-2143"></path>
            </g>
        </g>
    </g>
</svg>