<?xml version="1.0" encoding="UTF-8" standalone="no"?>
<svg width="31px" height="59px" viewBox="0 0 31 59" version="1.1" xmlns="http://www.w3.org/2000/svg" xmlns:xlink="http://www.w3.org/1999/xlink">
    <!-- Generator: Sketch 3.6.1 (26313) - http://www.bohemiancoding.com/sketch -->
    <title>fork</title>
    <desc>Created with Sketch.</desc>
    <defs></defs>
    <g id="Page-1" stroke="none" stroke-width="1" fill="none" fill-rule="evenodd">
        <g id="Accounting-course-landing-page-hifi" transform="translate(-1107.000000, -1350.000000)" fill="#0DBDFF">
            <g id="fork" transform="translate(1107.000000, 1350.000000)">
                <path d="M15,58.66 C14.448,58.66 14,58.212 14,57.66 L14,31.66 C14,31.11 14.448,30.66 15,30.66 C15.552,30.66 16,31.11 16,31.66 L16,57.66 C16,58.212 15.552,58.66 15,58.66" id="Fill-3230"></path>
                <path d="M14.852,31.694 C14.298,31.694 13.852,31.246 13.852,30.694 C13.852,30.138 14.298,29.692 14.852,29.692 C18.592,29.692 22,26.578 22,23.16 L22,3.66 C22,3.11 22.448,2.66 23,2.66 C23.552,2.66 24,3.11 24,3.66 L24,23.16 C24,27.706 19.724,31.694 14.852,31.694" id="Fill-3231"></path>
                <path d="M14.852,31.694 C10.054,31.694 6,27.788 6,23.16 L6,7.66 C6,7.11 6.448,6.66 7,6.66 C7.552,6.66 8,7.11 8,7.66 L8,23.16 C8,26.704 11.138,29.692 14.852,29.692 C15.404,29.692 15.852,30.138 15.852,30.694 C15.852,31.246 15.404,31.694 14.852,31.694" id="Fill-3232"></path>
                <path d="M29.424,7.91 C29.21,7.91 28.994,7.842 28.812,7.7 L23.018,3.192 L17.562,7.684 C17.134,8.036 16.504,7.97 16.154,7.544 C15.802,7.118 15.864,6.488 16.29,6.136 L22.364,1.136 C22.726,0.84 23.246,0.832 23.614,1.122 L30.04,6.122 C30.476,6.458 30.554,7.088 30.214,7.526 C30.018,7.778 29.722,7.91 29.424,7.91" id="Fill-3233"></path>
                <path d="M12.426,12.91 C12.184,12.91 11.94,12.824 11.748,12.644 L7,8.27 L2.252,12.644 C1.844,13.022 1.212,12.992 0.838,12.586 C0.464,12.184 0.49,11.548 0.896,11.176 L6.322,6.176 C6.706,5.822 7.294,5.822 7.678,6.176 L13.104,11.176 C13.51,11.548 13.536,12.184 13.162,12.586 C12.964,12.8 12.696,12.91 12.426,12.91" id="Fill-3234"></path>
            </g>
        </g>
    </g>
</svg>