<?xml version="1.0" encoding="UTF-8" standalone="no"?>
<svg width="61px" height="52px" viewBox="0 0 61 52" version="1.1" xmlns="http://www.w3.org/2000/svg" xmlns:xlink="http://www.w3.org/1999/xlink">
    <!-- Generator: Sketch 3.6.1 (26313) - http://www.bohemiancoding.com/sketch -->
    <title>hand</title>
    <desc>Created with Sketch.</desc>
    <defs></defs>
    <g id="Page-1" stroke="none" stroke-width="1" fill="none" fill-rule="evenodd">
        <g id="Accounting-course-landing-page-hifi" transform="translate(-1080.000000, -1082.000000)" fill="#0DBDFF">
            <g id="hand" transform="translate(1080.000000, 1082.000000)">
                <path d="M2,46.66 L14,46.66 L14,26.66 L2,26.66 L2,46.66 Z M15,48.662 L1,48.662 C0.448,48.662 0,48.22 0,47.662 L0,25.66 C0,25.1 0.448,24.662 1,24.662 L15,24.662 C15.552,24.662 16,25.1 16,25.66 L16,47.662 C16,48.22 15.552,48.662 15,48.662 L15,48.662 Z" id="Fill-1882"></path>
                <path d="M35.036,51.76 C30.8,51.76 25.516,49.26 21.27,47.26 C18.6,46 16.078,44.8 14.958,44.8 C14.404,44.8 13.958,44.362 13.958,43.8 C13.958,43.24 14.404,42.8 14.958,42.8 C16.526,42.8 18.996,43.96 22.124,45.44 C26.19,47.362 31.25,49.76 35.036,49.76 C42.1,49.76 58.254,40.72 58.254,37.622 C58.254,35.322 57.232,34.26 55.036,34.26 C54.298,34.26 52.614,35.64 51.262,36.742 C48.566,38.94 45.52,41.44 42.65,40.622 C42.158,40.48 41.85,39.98 41.942,39.48 C42.098,38.622 41.968,37.96 41.546,37.46 C40.142,35.84 35.798,36.02 33.464,36.1 C32.954,36.122 32.504,36.122 32.144,36.122 C30.87,36.122 29.778,35.42 28.398,34.542 C25.91,32.94 22.504,30.76 15.412,30.662 C14.86,30.662 14.418,30.202 14.426,29.64 C14.434,29.1 14.87,28.702 15.44,28.66 C23.104,28.76 26.94,31.24 29.478,32.862 C30.626,33.6 31.456,34.122 32.144,34.122 C32.484,34.122 32.91,34.122 33.392,34.1 C36.432,33.98 41.028,33.822 43.058,36.16 C43.682,36.88 44,37.76 44.006,38.76 C45.794,38.622 48.094,36.742 49.996,35.18 C52,33.542 53.584,32.26 55.036,32.26 C58.352,32.26 60.254,34.22 60.254,37.622 C60.254,42.48 42.364,51.76 35.036,51.76" id="Fill-1883"></path>
                <path d="M42,40.66 L26,40.66 C25.448,40.66 25,40.22 25,39.662 C25,39.1 25.448,38.662 26,38.662 L42,38.662 C42.552,38.662 43,39.1 43,39.662 C43,40.22 42.552,40.66 42,40.66" id="Fill-1884"></path>
                <path d="M39.5,2.662 C38.672,2.662 38,3.34 38,4.162 L38,5.162 C38,5.98 38.672,6.662 39.5,6.662 L46.5,6.662 C47.328,6.662 48,5.98 48,5.162 L48,4.162 C48,3.34 47.328,2.662 46.5,2.662 L39.5,2.662 L39.5,2.662 Z M46.5,8.662 L39.5,8.662 C37.57,8.662 36,7.082 36,5.162 L36,4.162 C36,2.242 37.57,0.662 39.5,0.662 L46.5,0.662 C48.43,0.662 50,2.242 50,4.162 L50,5.162 C50,7.082 48.43,8.662 46.5,8.662 L46.5,8.662 Z" id="Fill-1885"></path>
                <path d="M27.5,12.662 C26.672,12.662 26,13.34 26,14.162 L26,15.16 C26,15.98 26.672,16.66 27.5,16.66 L34.5,16.66 C35.328,16.66 36,15.98 36,15.16 L36,14.162 C36,13.34 35.328,12.662 34.5,12.662 L27.5,12.662 L27.5,12.662 Z M34.5,18.662 L27.5,18.662 C25.57,18.662 24,17.082 24,15.16 L24,14.162 C24,12.242 25.57,10.66 27.5,10.66 L34.5,10.66 C36.43,10.66 38,12.242 38,14.162 L38,15.16 C38,17.082 36.43,18.662 34.5,18.662 L34.5,18.662 Z" id="Fill-1886"></path>
                <path d="M39.5,22.66 C38.672,22.66 38,23.34 38,24.16 L38,25.162 C38,25.98 38.672,26.662 39.5,26.662 L46.5,26.662 C47.328,26.662 48,25.98 48,25.162 L48,24.16 C48,23.34 47.328,22.66 46.5,22.66 L39.5,22.66 L39.5,22.66 Z M46.5,28.66 L39.5,28.66 C37.57,28.66 36,27.08 36,25.162 L36,24.16 C36,22.24 37.57,20.662 39.5,20.662 L46.5,20.662 C48.43,20.662 50,22.24 50,24.16 L50,25.162 C50,27.08 48.43,28.66 46.5,28.66 L46.5,28.66 Z" id="Fill-1887"></path>
            </g>
        </g>
    </g>
</svg>