<?xml version="1.0" encoding="UTF-8" standalone="no"?>
<svg width="94px" height="61px" viewBox="0 0 94 61" version="1.1" xmlns="http://www.w3.org/2000/svg" xmlns:xlink="http://www.w3.org/1999/xlink">
    <!-- Generator: Sketch 3.6.1 (26313) - http://www.bohemiancoding.com/sketch -->
    <title>icon-3-people</title>
    <desc>Created with Sketch.</desc>
    <defs></defs>
    <g id="Page-1" stroke="none" stroke-width="1" fill="none" fill-rule="evenodd">
        <g id="Accounting-course-landing-page-hifi" transform="translate(-292.000000, -807.000000)" fill="#0DBDFF">
            <g id="icon-3-people" transform="translate(292.000000, 807.000000)">
                <path d="M50.8,41.822 C50.436,41.822 50.084,41.62 49.908,41.26 C49.658,40.78 49.852,40.18 50.344,39.92 C54.906,37.602 55.864,31.562 55.864,26.92 C55.864,26.362 56.31,25.92 56.864,25.92 C58.8,25.92 60,25.142 60,24.42 L60,19.42 C60,18.34 60,17.92 57,17.92 C56.448,17.92 56,17.46 56,16.92 L56,11.92 C56,8.542 55.198,6.18 53.616,4.88 C51.958,3.52 49.358,3.202 45.666,3.92 C45.126,4.022 44.598,3.68 44.494,3.142 C44.386,2.602 44.74,2.062 45.282,1.96 C49.592,1.102 52.736,1.562 54.886,3.322 C56.952,5.02 58,7.92 58,11.92 L58,15.94 C61.334,16.12 62,17.34 62,19.42 L62,24.42 C62,26.2 60.306,27.562 57.85,27.862 C57.712,32.92 56.392,39.082 51.252,41.7 C51.108,41.782 50.952,41.822 50.8,41.822" id="Fill-6792"></path>
                <path d="M70.8,41.822 C70.436,41.822 70.084,41.62 69.908,41.26 C69.658,40.78 69.852,40.18 70.344,39.92 C75.146,37.48 75.864,30.7 75.864,26.88 C75.864,26.602 75.97,26.34 76.162,26.16 C76.352,25.982 76.636,25.92 76.878,25.88 C78.088,25.862 79.148,25.582 79.686,25.062 C79.894,24.862 80,24.642 80,24.42 L80,19.42 C80,18.34 80,17.92 77,17.92 C76.448,17.92 76,17.46 76,16.92 L76,11.92 C76,8.542 75.198,6.18 73.616,4.88 C71.958,3.52 69.358,3.202 65.666,3.92 C65.122,4.022 64.6,3.68 64.494,3.142 C64.386,2.602 64.74,2.062 65.282,1.96 C69.594,1.102 72.738,1.562 74.886,3.322 C76.952,5.02 78,7.92 78,11.92 L78,15.94 C81.334,16.12 82,17.34 82,19.42 L82,24.42 C82,25.18 81.684,25.9 81.088,26.48 C80.332,27.22 79.204,27.7 77.85,27.82 C77.71,32.902 76.388,39.102 71.252,41.7 C71.108,41.782 70.952,41.822 70.8,41.822" id="Fill-6793"></path>
                <path d="M33.402,2.3 C31.382,2.3 28.302,2.8 25.1,5.22 C24.926,5.34 24.716,5.42 24.5,5.42 C14.802,5.42 14,8.48 14,11.92 L14,16.92 C14,17.282 13.804,17.602 13.49,17.782 C12.866,18.142 12,18.902 12,19.42 L12,24.42 C12,24.862 12,25.92 14.364,25.92 C14.916,25.92 15.364,26.362 15.364,26.92 C15.364,33.38 20.218,40.92 26.476,40.92 C32.922,40.92 38.114,33.26 38.114,26.92 C38.114,26.362 38.56,25.92 39.114,25.92 C40.812,25.92 42,25.3 42,24.42 L42,19.42 C42,18.902 41.134,18.142 40.51,17.782 C40.196,17.602 40,17.282 40,16.92 L40,11.92 C40,11.68 40.078,11.46 40.218,11.282 C41.608,9.562 41.93,7.78 41.152,6.16 C40.042,3.862 36.928,2.3 33.402,2.3 L33.402,2.3 Z M26.476,42.92 C19.282,42.92 13.832,35.142 13.392,27.862 C10.262,27.46 10,25.162 10,24.42 L10,19.42 C10,17.98 11.256,16.88 12,16.36 L12,11.92 C12,5.942 15.532,3.482 24.17,3.42 C27.718,0.84 31.136,0.3 33.402,0.3 C37.748,0.3 41.498,2.26 42.956,5.3 C44.028,7.52 43.686,9.98 42,12.26 L42,16.36 C42.744,16.88 44,17.98 44,19.42 L44,24.42 C44,25.982 42.778,27.562 40.08,27.862 C39.584,34.9 33.704,42.92 26.476,42.92 L26.476,42.92 Z" id="Fill-6794"></path>
                <path d="M1,60.66 C0.448,60.66 0,60.22 0,59.662 L0,56.92 C0,49.862 4.758,45.66 12.726,45.66 L15.952,45.66 L19.996,39.82 C20.31,39.362 20.932,39.242 21.388,39.562 C21.842,39.88 21.956,40.5 21.64,40.96 L17.298,47.22 C17.112,47.5 16.804,47.662 16.476,47.662 L12.726,47.662 C5.91,47.662 2,51.042 2,56.92 L2,59.662 C2,60.22 1.552,60.66 1,60.66" id="Fill-6795"></path>
                <path d="M53,60.66 C52.448,60.66 52,60.22 52,59.662 L52,56.92 C52,50.082 46.026,47.662 40.434,47.662 L36.684,47.662 C36.338,47.662 36.018,47.48 35.836,47.18 L31.914,40.92 C31.622,40.442 31.764,39.82 32.232,39.54 C32.702,39.242 33.318,39.38 33.61,39.862 L37.238,45.66 L40.434,45.66 C48.674,45.66 54,50.082 54,56.92 L54,59.662 C54,60.22 53.552,60.66 53,60.66" id="Fill-6796"></path>
                <path d="M73,60.66 C72.448,60.66 72,60.22 72,59.662 L72,56.92 C72,50.082 66.026,47.662 60.434,47.662 L56.684,47.662 C56.338,47.662 56.018,47.48 55.836,47.18 L51.914,40.92 C51.622,40.442 51.764,39.82 52.232,39.54 C52.702,39.242 53.318,39.38 53.61,39.862 L57.238,45.66 L60.434,45.66 C68.674,45.66 74,50.082 74,56.92 L74,59.662 C74,60.22 73.552,60.66 73,60.66" id="Fill-6797"></path>
                <path d="M93,60.66 C92.448,60.66 92,60.22 92,59.662 L92,56.92 C92,50.082 86.026,47.662 80.434,47.662 L76.684,47.662 C76.338,47.662 76.018,47.48 75.836,47.18 L71.914,40.92 C71.622,40.442 71.764,39.82 72.232,39.54 C72.702,39.242 73.318,39.38 73.61,39.862 L77.238,45.66 L80.434,45.66 C88.674,45.66 94,50.082 94,56.92 L94,59.662 C94,60.22 93.552,60.66 93,60.66" id="Fill-6798"></path>
            </g>
        </g>
    </g>
</svg>