<?xml version="1.0" encoding="UTF-8" standalone="no"?>
<svg width="108px" height="108px" viewBox="0 0 108 108" version="1.1" xmlns="http://www.w3.org/2000/svg" xmlns:xlink="http://www.w3.org/1999/xlink">
    <!-- Generator: Sketch 3.6.1 (26313) - http://www.bohemiancoding.com/sketch -->
    <title>icon-coins</title>
    <desc>Created with Sketch.</desc>
    <defs></defs>
    <g id="Page-1" stroke="none" stroke-width="1" fill="none" fill-rule="evenodd">
        <g id="Accounting-course-landing-page-hifi" transform="translate(-512.000000, -2401.000000)">
            <g id="icon-coins" transform="translate(512.000000, 2401.000000)">
                <ellipse id="Oval-22" fill="#FFFFFF" cx="54" cy="54" rx="54" ry="54"></ellipse>
                <g id="Group" transform="translate(24.000000, 27.000000)" fill="#0DBDFF">
                    <path d="M42,2.702 C33.292,2.702 28.184,4.52 28,5.46 C28.182,6.38 33.29,8.202 42,8.202 C50.71,8.202 55.818,6.38 56,5.46 C55.816,4.52 50.708,2.702 42,2.702 L42,2.702 Z M42,10.202 C36.058,10.202 26,9.202 26,5.46 C26,1.702 36.058,0.702 42,0.702 C47.942,0.702 58,1.702 58,5.46 C58,9.202 47.942,10.202 42,10.202 L42,10.202 Z" id="Fill-2154"></path>
                    <path d="M24.208,42.702 L24.208,40.702 C32.916,40.702 38.024,38.88 38.208,37.96 C38.204,37.96 38.024,37.44 36.298,36.8 L36.992,34.92 C39.126,35.702 40.208,36.742 40.208,37.96 C40.208,41.702 30.15,42.702 24.208,42.702" id="Fill-2155"></path>
                    <path d="M24,47.702 C18.058,47.702 8,46.702 8,42.96 L8,39.66 L10,39.66 L10,42.96 C10.184,43.88 15.292,45.702 24,45.702 C33.33,45.702 37.854,43.702 38,42.92 L38,37.66 L40,37.66 L40,42.942 C40,46.702 29.534,47.702 24,47.702" id="Fill-2156"></path>
                    <path d="M21.708,37.702 C15.764,37.702 5.708,36.702 5.708,32.96 L7.708,32.96 C7.89,33.88 12.996,35.702 21.708,35.702 C30.416,35.702 35.524,33.88 35.708,32.96 C35.696,32.9 35.526,32.64 34.936,32.3 L35.924,30.56 C37.108,31.24 37.708,32.042 37.708,32.96 C37.708,36.702 27.65,37.702 21.708,37.702" id="Fill-2157"></path>
                    <path d="M22,42.702 C16.058,42.702 6,41.702 6,37.96 L6,33.66 C6,33.1 6.448,32.662 7,32.662 C7.552,32.662 8,33.1 8,33.66 L8,37.96 C8.184,38.88 13.292,40.702 22,40.702 C31.33,40.702 35.854,38.702 36,37.92 L36,33.66 C36,33.1 36.448,32.662 37,32.662 C37.552,32.662 38,33.1 38,33.66 L38,37.94 C38,41.702 27.534,42.702 22,42.702" id="Fill-2158"></path>
                    <path d="M16,22.702 C7.292,22.702 2.184,24.52 2,25.46 C2.182,26.38 7.29,28.202 16,28.202 C24.71,28.202 29.818,26.38 30,25.46 C29.816,24.52 24.708,22.702 16,22.702 L16,22.702 Z M16,30.202 C10.058,30.202 0,29.202 0,25.46 C0,21.702 10.058,20.702 16,20.702 C21.942,20.702 32,21.702 32,25.46 C32,29.202 21.942,30.202 16,30.202 L16,30.202 Z" id="Fill-2159"></path>
                    <path d="M16,35.202 C10.058,35.202 0,34.202 0,30.46 L0,25.66 L2,25.66 L2,30.46 C2.184,31.38 7.292,33.202 16,33.202 C25.33,33.202 29.854,31.202 30,30.42 L30,25.66 L32,25.66 L32,30.44 C32,34.202 21.534,35.202 16,35.202" id="Fill-2160"></path>
                    <path d="M21.342,47.64 C14.604,47.64 6.812,46.56 4.676,44.442 C4.118,43.88 4,43.32 4,42.96 C4,40.542 7.776,39.942 9.016,39.742 L9.334,41.702 C6.566,42.16 6,42.8 6,42.96 C6.43,43.902 12.684,45.72 21.702,45.64 L21.712,47.64 L21.342,47.64" id="Fill-2161"></path>
                    <path d="M20,52.702 C14.058,52.702 4,51.702 4,47.96 L4,43.66 C4,43.1 4.448,42.66 5,42.66 C5.552,42.66 6,43.1 6,43.66 L6,47.96 C6.184,48.88 11.292,50.702 20,50.702 C29.33,50.702 33.854,48.702 34,47.92 L34,45.66 C34,45.1 34.448,44.662 35,44.662 C35.552,44.662 36,45.1 36,45.66 L36,47.94 C36,51.702 25.534,52.702 20,52.702" id="Fill-2162"></path>
                    <path d="M42,17.702 C36.058,17.702 26,16.702 26,12.96 C26,12.402 26.448,11.96 27,11.96 C27.552,11.96 28,12.402 28,12.96 C28.182,13.88 33.29,15.702 42,15.702 C50.71,15.702 55.818,13.88 56,12.96 C56,12.402 56.448,11.96 57,11.96 C57.552,11.96 58,12.402 58,12.96 C58,16.702 47.942,17.702 42,17.702" id="Fill-2163"></path>
                    <path d="M42,25.202 C36.058,25.202 26,24.202 26,20.46 C26,19.902 26.448,19.46 27,19.46 C27.552,19.46 28,19.902 28,20.46 C28.182,21.38 33.29,23.202 42,23.202 C50.71,23.202 55.818,21.38 56,20.46 C56,19.902 56.448,19.46 57,19.46 C57.552,19.46 58,19.902 58,20.46 C58,24.202 47.942,25.202 42,25.202" id="Fill-2164"></path>
                    <path d="M42,32.702 C39.254,32.702 33.918,32.362 31.62,32.02 C31.072,31.94 30.694,31.44 30.772,30.9 C30.85,30.342 31.34,29.96 31.904,30.042 C34.09,30.362 39.376,30.702 42,30.702 C50.71,30.702 55.818,28.88 56,27.96 C56,27.402 56.448,26.96 57,26.96 C57.552,26.96 58,27.402 58,27.96 C58,31.702 47.942,32.702 42,32.702" id="Fill-2165"></path>
                    <path d="M42,40.202 C41.134,40.202 40.286,40.18 39.458,40.162 C38.908,40.14 38.478,39.66 38.5,39.122 C38.522,38.56 38.968,38.122 39.542,38.16 C40.34,38.182 41.162,38.202 42,38.202 C50.71,38.202 55.818,36.38 56,35.46 C56,34.902 56.448,34.46 57,34.46 C57.552,34.46 58,34.902 58,35.46 C58,39.202 47.942,40.202 42,40.202" id="Fill-2166"></path>
                    <path d="M26,5.662 L28,5.662 L28,23.662 L26,23.662 L26,5.662 Z" id="Fill-2167"></path>
                    <path d="M41.838,47.202 C41.118,47.202 37.876,46.902 36.34,45.56 C35.926,45.202 35.884,44.56 36.248,44.14 C36.612,43.74 37.244,43.702 37.66,44.06 C38.56,44.84 41.046,45.202 41.838,45.202 C50.578,45.202 55.778,43.38 56,42.44 L56,5.662 C56,5.102 56.448,4.66 57,4.66 C57.552,4.66 58,5.102 58,5.662 L58,42.46 C58,46.202 47.428,47.202 41.838,47.202" id="Fill-2168"></path>
                </g>
            </g>
        </g>
    </g>
</svg>