<?xml version="1.0" encoding="UTF-8" standalone="no"?>
<svg width="70px" height="44px" viewBox="0 0 70 44" version="1.1" xmlns="http://www.w3.org/2000/svg" xmlns:xlink="http://www.w3.org/1999/xlink">
    <!-- Generator: Sketch 3.6.1 (26313) - http://www.bohemiancoding.com/sketch -->
    <title>money</title>
    <desc>Created with Sketch.</desc>
    <defs></defs>
    <g id="Page-1" stroke="none" stroke-width="1" fill="none" fill-rule="evenodd">
        <g id="Accounting-course-landing-page-hifi" transform="translate(-702.000000, -1369.000000)" fill="#0DBDFF">
            <g id="money" transform="translate(702.000000, 1369.000000)">
                <path d="M2,41.162 C5.74,41.622 9.418,41.84 13.216,41.84 C18.73,41.84 23.674,41.38 28.912,40.9 C34.198,40.42 39.666,39.92 45.808,39.92 C49.894,39.92 53.896,40.14 58,40.582 L58,12.6 C53.896,12.14 49.902,11.92 45.818,11.92 C39.77,11.92 34.35,12.42 29.108,12.902 C24.058,13.362 18.836,13.84 13.234,13.84 C9.43,13.84 5.744,13.622 2,13.18 L2,41.162 L2,41.162 Z M13.216,43.84 C9.036,43.84 4.998,43.582 0.87,43.042 C0.372,42.98 0,42.542 0,42.042 L0,12.042 C0,11.76 0.124,11.48 0.34,11.282 C0.556,11.1 0.838,11 1.13,11.042 C5.176,11.58 9.136,11.84 13.234,11.84 C18.746,11.84 23.69,11.38 28.924,10.9 C34.21,10.42 39.678,9.92 45.818,9.92 C50.274,9.92 54.624,10.18 59.12,10.72 C59.622,10.782 60,11.202 60,11.702 L60,41.72 C60,42 59.878,42.26 59.664,42.46 C59.45,42.64 59.166,42.74 58.88,42.702 C54.46,42.162 50.184,41.92 45.808,41.92 C39.758,41.92 34.336,42.42 29.094,42.902 C24.044,43.362 18.822,43.84 13.216,43.84 L13.216,43.84 Z" id="Fill-1933"></path>
                <path d="M63,38.66 C62.448,38.66 62,38.22 62,37.662 L62,8.162 C51.588,6.88 43.454,7.68 34.854,8.52 C26.098,9.38 17.044,10.26 5.376,8.8 C4.828,8.72 4.438,8.22 4.508,7.68 C4.576,7.122 5.074,6.74 5.626,6.8 C17.072,8.24 26.014,7.38 34.66,6.542 C43.22,5.702 52.074,4.822 63.13,6.282 C63.628,6.34 64,6.782 64,7.282 L64,37.662 C64,38.22 63.552,38.66 63,38.66" id="Fill-1934"></path>
                <path d="M69,34.662 C68.448,34.662 68,34.22 68,33.662 L68,3.202 C56.504,1.92 48.05,2.88 39.862,3.82 C31.542,4.782 22.94,5.76 11.376,4.322 C10.828,4.242 10.438,3.74 10.508,3.202 C10.576,2.64 11.07,2.26 11.626,2.32 C22.95,3.76 31.052,2.822 39.634,1.84 C48.146,0.862 56.942,-0.138 69.12,1.322 C69.622,1.38 70,1.822 70,2.32 L70,33.662 C70,34.22 69.552,34.662 69,34.662" id="Fill-1935"></path>
                <path d="M13.32,38.84 C10.732,38.84 8.206,38.742 5.594,38.542 C5.044,38.48 4.634,38 4.678,37.46 C4.724,36.902 5.192,36.5 5.756,36.542 C8.312,36.74 10.786,36.84 13.32,36.84 C13.874,36.84 14.32,37.3 14.32,37.84 C14.32,38.402 13.874,38.84 13.32,38.84" id="Fill-1936"></path>
                <path d="M53.176,17.22 L53.096,17.22 C50.56,17 48.084,16.92 45.528,16.92 C44.974,16.92 44.528,16.46 44.528,15.92 C44.528,15.362 44.974,14.92 45.528,14.92 C48.138,14.92 50.666,15.02 53.256,15.22 C53.806,15.26 54.216,15.74 54.172,16.3 C54.13,16.822 53.692,17.22 53.176,17.22" id="Fill-1937"></path>
                <path d="M28.28,32.14 C25.972,32.14 24.422,30.782 24.422,28.76 C24.422,28.22 24.87,27.76 25.422,27.76 C25.974,27.76 26.422,28.22 26.422,28.76 C26.422,30.02 27.72,30.14 28.28,30.14 C28.838,30.14 30.136,30.02 30.136,28.76 C30.136,28.02 29.982,27.862 28.292,27.042 L27.378,26.58 C25.726,25.76 24.422,25.122 24.422,23.06 C24.422,21.06 26.008,19.662 28.28,19.662 C30.564,19.662 32.098,21.02 32.098,23.06 C32.098,23.6 31.65,24.06 31.098,24.06 C30.544,24.06 30.098,23.6 30.098,23.06 C30.098,21.782 28.826,21.662 28.28,21.662 C27.844,21.662 26.422,21.76 26.422,23.06 C26.422,23.822 26.578,23.96 28.264,24.782 L29.176,25.242 C30.832,26.06 32.136,26.702 32.136,28.76 C32.136,30.782 30.586,32.14 28.28,32.14" id="Fill-1938"></path>
                <path d="M28.282,20.66 C27.728,20.66 27.282,20.22 27.282,19.662 L27.282,17.66 C27.282,17.1 27.728,16.662 28.282,16.662 C28.834,16.662 29.282,17.1 29.282,17.66 L29.282,19.662 C29.282,20.22 28.834,20.66 28.282,20.66" id="Fill-1939"></path>
                <path d="M28.282,34.662 C27.728,34.662 27.282,34.22 27.282,33.662 L27.282,31.662 C27.282,31.1 27.728,30.662 28.282,30.662 C28.834,30.662 29.282,31.1 29.282,31.662 L29.282,33.662 C29.282,34.22 28.834,34.662 28.282,34.662" id="Fill-1940"></path>
            </g>
        </g>
    </g>
</svg>