<?xml version="1.0" encoding="UTF-8" standalone="no"?>
<svg width="489px" height="630px" viewBox="0 0 489 630" version="1.1" xmlns="http://www.w3.org/2000/svg" xmlns:xlink="http://www.w3.org/1999/xlink">
    <!-- Generator: Sketch 3.6.1 (26313) - http://www.bohemiancoding.com/sketch -->
    <title>phone</title>
    <desc>Created with Sketch.</desc>
    <defs>
        <rect id="path-1" x="0" y="0" width="500" height="715"></rect>
        <linearGradient x1="50%" y1="0%" x2="50%" y2="100%" id="linearGradient-3">
            <stop stop-color="#36CEF9" offset="0%"></stop>
            <stop stop-color="#279DF4" offset="100%"></stop>
        </linearGradient>
        <filter x="-50%" y="-50%" width="200%" height="200%" filterUnits="objectBoundingBox" id="filter-4">
            <feOffset dx="0" dy="0.5" in="SourceAlpha" result="shadowOffsetOuter1"></feOffset>
            <feGaussianBlur stdDeviation="0" in="shadowOffsetOuter1" result="shadowBlurOuter1"></feGaussianBlur>
            <feColorMatrix values="0 0 0 0 0.698039216   0 0 0 0 0.698039216   0 0 0 0 0.698039216  0 0 0 0.7 0" in="shadowBlurOuter1" type="matrix" result="shadowMatrixOuter1"></feColorMatrix>
            <feMerge>
                <feMergeNode in="shadowMatrixOuter1"></feMergeNode>
                <feMergeNode in="SourceGraphic"></feMergeNode>
            </feMerge>
        </filter>
    </defs>
    <g id="Page-1" stroke="none" stroke-width="1" fill="none" fill-rule="evenodd">
        <g id="Accounting-course-landing-page-hifi" transform="translate(-722.000000, -2499.000000)">
            <g id="phone" transform="translate(716.000000, 2414.000000)">
                <mask id="mask-2" fill="white">
                    <use xlink:href="#path-1"></use>
                </mask>
                <use id="Mask" xlink:href="#path-1"></use>
                <g id="Group-5" mask="url(#mask-2)">
                    <g transform="translate(6.000000, 90.000000)">
                        <g id="iPhone-Outline" stroke="none" stroke-width="1" fill="none" fill-rule="evenodd">
                            <rect id="Rectangle-59" stroke="#BCC6D2" stroke-width="5" fill="#FFFFFF" x="10" y="0" width="469" height="979" rx="71"></rect>
                            <rect id="Rectangle-62" stroke="#BCC6D2" stroke-width="4" fill="#FFFFFF" x="0" y="122" width="10" height="40" rx="5"></rect>
                            <rect id="Rectangle-62-Copy" stroke="#BCC6D2" stroke-width="4" fill="#FFFFFF" x="0" y="205" width="10" height="71" rx="5"></rect>
                            <rect id="Rectangle-62-Copy-2" stroke="#BCC6D2" stroke-width="4" fill="#FFFFFF" x="0" y="293" width="10" height="71" rx="5"></rect>
                            <rect id="Rectangle-62-Copy-3" stroke="#BCC6D2" stroke-width="4" fill="#FFFFFF" x="479" y="205" width="10" height="71" rx="5"></rect>
                        </g>
                        <rect id="Rectangle-61" stroke="#BCC6D2" stroke-width="2" fill="#FFFFFF" fill-rule="evenodd" x="38" y="115" width="414" height="614"></rect>
                        <rect id="**REPLACE-ME**-Screen" stroke="none" fill="#FFFFFF" fill-rule="evenodd" x="38" y="116" width="414" height="735"></rect>
                        <g id="Group-7" stroke="none" stroke-width="1" fill="none" fill-rule="evenodd" transform="translate(50.000000, 245.000000)">
                            <path d="M16.5710689,82.5576606 C18.5185871,83.4824877 20.697084,84 22.9964474,84 L278.003553,84 C286.288234,84 293,77.287272 293,69.0067024 L293,14.9932976 C293,6.71441754 286.285862,0 278.003553,0 L22.9964474,0 C14.7117664,0 8,6.71272797 8,14.9932976 L8,59 C7.17796403,82.7809939 8.25256739,83.208086 0,90 C7.67712851,90 13.5010547,88.0669775 16.5710689,82.5576606 L16.5710689,82.5576606 Z" id="Rectangle-15" fill="#EEF2F5"></path>
                            <text id="Hi,-I-finished-your-" font-family="AvenirNext-Regular, Avenir Next" font-size="14" font-weight="normal" line-spacing="18" fill="#000000">
                                <tspan x="28" y="28">Hi, I finished your taxes, your total tax </tspan>
                                <tspan x="28" y="46">comes to $10,000… minus whatever </tspan>
                                <tspan x="28" y="64">you paid in quarterly payments.</tspan>
                            </text>
                        </g>
                        <text id="Today-11:45-AM" stroke="none" fill="none" font-family="AvenirNext-Bold, Avenir Next" font-size="11" font-weight="bold" line-spacing="18">
                            <tspan x="200.222" y="235" fill="#CCD4DD">Today </tspan>
                            <tspan x="234.96" y="235" font-family="AvenirNext-Regular, Avenir Next" font-weight="normal" fill="#CCD4DD">11:45 AM</tspan>
                        </text>
                        <path d="M433.402588,383.059374 C433.791155,381.774315 434,380.41119 434,378.999249 L434,375.000751 C434,367.264928 427.728759,361 419.992791,361 L221.007209,361 C213.263539,361 207,367.26835 207,375.000751 L207,378.999249 C207,386.735072 213.271241,393 221.007209,393 L419.992791,393 C421.339683,393 422.641797,392.810362 423.87396,392.456367 C426.761628,398.811833 432.831909,401 441,401 C434.644613,395.769477 433.82089,394.313738 433.402588,383.059374 L433.402588,383.059374 Z" id="Rectangle-15-Copy" stroke="none" fill="url(#linearGradient-3)" fill-rule="evenodd"></path>
                        <g id="Navigation-Bar/Subtitle" stroke="none" stroke-width="1" fill="none" fill-rule="evenodd" transform="translate(38.000000, 115.000000)">
                            <rect id="Bar" fill-opacity="0.9" fill="#FAFAFA" filter="url(#filter-4)" x="0" y="0" width="414" height="71"></rect>
                            <path d="M9,46.5 L20.76,35 L23,37.1904762 L13.48,46.5 L23,55.8095238 L20.76,58 L9,46.5 Z" id="Back-Chevron" fill="#0076FF"></path>
                            <path d="M31.36,39.862 L31.36,52 L32.89,52 L32.89,41.902 L32.924,41.902 L36.715,52 L38.092,52 L41.883,41.902 L41.917,41.902 L41.917,52 L43.447,52 L43.447,39.862 L41.237,39.862 L37.395,50.062 L33.57,39.862 L31.36,39.862 Z M51.588,46.764 L46.539,46.764 C46.5616668,46.4239983 46.6353327,46.1038348 46.76,45.8035 C46.8846673,45.5031652 47.0546656,45.2396678 47.27,45.013 C47.4853344,44.7863322 47.7431652,44.607834 48.0435,44.4775 C48.3438348,44.347166 48.6809981,44.282 49.055,44.282 C49.4176685,44.282 49.7491652,44.347166 50.0495,44.4775 C50.3498348,44.607834 50.6104989,44.7834989 50.8315,45.0045 C51.0525011,45.2255011 51.228166,45.4889985 51.3585,45.795 C51.488834,46.1010015 51.5653332,46.4239983 51.588,46.764 L51.588,46.764 Z M52.982,49.212 L51.554,49.212 C51.4293327,49.7900029 51.171502,50.2206653 50.7805,50.504 C50.389498,50.7873348 49.8880031,50.929 49.276,50.929 C48.7999976,50.929 48.3863351,50.8496675 48.035,50.691 C47.6836649,50.5323325 47.3946678,50.3198347 47.168,50.0535 C46.9413322,49.7871653 46.7770005,49.4811684 46.675,49.1355 C46.5729995,48.7898316 46.5276666,48.4243353 46.539,48.039 L53.118,48.039 C53.1406668,47.5063307 53.0925006,46.9453363 52.9735,46.356 C52.8544994,45.7666637 52.6391682,45.2226692 52.3275,44.724 C52.0158318,44.2253308 51.6021692,43.8145016 51.0865,43.4915 C50.5708308,43.1684984 49.9220039,43.007 49.14,43.007 C48.5393303,43.007 47.9868359,43.1203322 47.4825,43.347 C46.9781641,43.5736678 46.5418352,43.890998 46.1735,44.299 C45.8051648,44.707002 45.519001,45.1886639 45.315,45.744 C45.110999,46.2993361 45.009,46.91133 45.009,47.58 C45.0316668,48.24867 45.1308325,48.8663305 45.3065,49.433 C45.4821675,49.9996695 45.7456649,50.486998 46.097,50.895 C46.4483351,51.303002 46.8818308,51.6203322 47.3975,51.847 C47.9131692,52.0736678 48.5223298,52.187 49.225,52.187 C50.2223383,52.187 51.0496634,51.9376692 51.707,51.439 C52.3643366,50.9403308 52.7893324,50.1980049 52.982,49.212 L52.982,49.212 Z M55.088,49.229 L53.643,49.229 C53.6656668,49.7730027 53.778999,50.2348314 53.983,50.6145 C54.187001,50.9941686 54.4589983,51.3001655 54.799,51.5325 C55.1390017,51.7648345 55.5299978,51.9319995 55.972,52.034 C56.4140022,52.1360005 56.8786642,52.187 57.366,52.187 C57.8080022,52.187 58.2528311,52.1445004 58.7005,52.0595 C59.1481689,51.9744996 59.5504982,51.8243344 59.9075,51.609 C60.2645018,51.3936656 60.5534989,51.1103351 60.7745,50.759 C60.9955011,50.4076649 61.106,49.9656693 61.106,49.433 C61.106,49.0136646 61.0238342,48.6623348 60.8595,48.379 C60.6951659,48.0956653 60.4798347,47.8605009 60.2135,47.6735 C59.9471653,47.4864991 59.6411684,47.3363339 59.2955,47.223 C58.9498316,47.1096661 58.5956685,47.0133337 58.233,46.934 C57.8929983,46.8546663 57.5530017,46.778167 57.213,46.7045 C56.8729983,46.630833 56.5670014,46.5401672 56.295,46.4325 C56.0229986,46.3248328 55.7991676,46.1888342 55.6235,46.0245 C55.4478325,45.8601658 55.36,45.6533346 55.36,45.404 C55.36,45.1773322 55.4166661,44.9931674 55.53,44.8515 C55.6433339,44.7098326 55.7906658,44.5965004 55.972,44.5115 C56.1533342,44.4264996 56.3544989,44.3670002 56.5755,44.333 C56.7965011,44.2989998 57.0146656,44.282 57.23,44.282 C57.4680012,44.282 57.7031655,44.3074997 57.9355,44.3585 C58.1678345,44.4095003 58.3803324,44.4916661 58.573,44.605 C58.7656676,44.7183339 58.9243327,44.8684991 59.049,45.0555 C59.1736673,45.2425009 59.2473332,45.4776653 59.27,45.761 L60.715,45.761 C60.6809998,45.2283307 60.5676676,44.7835018 60.375,44.4265 C60.1823324,44.0694982 59.9245016,43.7861677 59.6015,43.5765 C59.2784984,43.3668323 58.9073354,43.2195004 58.488,43.1345 C58.0686646,43.0494996 57.6096692,43.007 57.111,43.007 C56.7256647,43.007 56.337502,43.0551662 55.9465,43.1515 C55.5554981,43.2478338 55.2041682,43.3951657 54.8925,43.5935 C54.5808318,43.7918343 54.3258343,44.0496651 54.1275,44.367 C53.9291657,44.6843349 53.83,45.0639978 53.83,45.506 C53.83,46.0726695 53.9716653,46.5146651 54.255,46.832 C54.5383348,47.1493349 54.8924979,47.3958325 55.3175,47.5715 C55.7425021,47.7471675 56.2043308,47.8831662 56.703,47.9795 C57.2016692,48.0758338 57.6634979,48.1834994 58.0885,48.3025 C58.5135021,48.4215006 58.8676653,48.5773324 59.151,48.77 C59.4343348,48.9626676 59.576,49.2459981 59.576,49.62 C59.576,49.8920014 59.5080007,50.1158325 59.372,50.2915 C59.2359993,50.4671675 59.0631677,50.6003329 58.8535,50.691 C58.6438323,50.7816671 58.4143346,50.8439998 58.165,50.878 C57.9156654,50.9120002 57.6776678,50.929 57.451,50.929 C57.1563319,50.929 56.8701681,50.900667 56.5925,50.844 C56.314832,50.7873331 56.0655011,50.693834 55.8445,50.5635 C55.6234989,50.433166 55.4450007,50.2575011 55.309,50.0365 C55.1729993,49.8154989 55.0993334,49.5463349 55.088,49.229 L55.088,49.229 Z M63.178,49.229 L61.733,49.229 C61.7556668,49.7730027 61.868999,50.2348314 62.073,50.6145 C62.277001,50.9941686 62.5489983,51.3001655 62.889,51.5325 C63.2290017,51.7648345 63.6199978,51.9319995 64.062,52.034 C64.5040022,52.1360005 64.9686642,52.187 65.456,52.187 C65.8980022,52.187 66.3428311,52.1445004 66.7905,52.0595 C67.2381689,51.9744996 67.6404982,51.8243344 67.9975,51.609 C68.3545018,51.3936656 68.6434989,51.1103351 68.8645,50.759 C69.0855011,50.4076649 69.196,49.9656693 69.196,49.433 C69.196,49.0136646 69.1138342,48.6623348 68.9495,48.379 C68.7851659,48.0956653 68.5698347,47.8605009 68.3035,47.6735 C68.0371653,47.4864991 67.7311684,47.3363339 67.3855,47.223 C67.0398316,47.1096661 66.6856685,47.0133337 66.323,46.934 C65.9829983,46.8546663 65.6430017,46.778167 65.303,46.7045 C64.9629983,46.630833 64.6570014,46.5401672 64.385,46.4325 C64.1129987,46.3248328 63.8891676,46.1888342 63.7135,46.0245 C63.5378325,45.8601658 63.45,45.6533346 63.45,45.404 C63.45,45.1773322 63.5066661,44.9931674 63.62,44.8515 C63.7333339,44.7098326 63.8806658,44.5965004 64.062,44.5115 C64.2433343,44.4264996 64.4444989,44.3670002 64.6655,44.333 C64.8865011,44.2989998 65.1046656,44.282 65.32,44.282 C65.5580012,44.282 65.7931655,44.3074997 66.0255,44.3585 C66.2578345,44.4095003 66.4703324,44.4916661 66.663,44.605 C66.8556676,44.7183339 67.0143327,44.8684991 67.139,45.0555 C67.2636673,45.2425009 67.3373332,45.4776653 67.36,45.761 L68.805,45.761 C68.7709998,45.2283307 68.6576676,44.7835018 68.465,44.4265 C68.2723324,44.0694982 68.0145016,43.7861677 67.6915,43.5765 C67.3684984,43.3668323 66.9973354,43.2195004 66.578,43.1345 C66.1586646,43.0494996 65.6996692,43.007 65.201,43.007 C64.8156648,43.007 64.427502,43.0551662 64.0365,43.1515 C63.6454981,43.2478338 63.2941682,43.3951657 62.9825,43.5935 C62.6708318,43.7918343 62.4158343,44.0496651 62.2175,44.367 C62.0191657,44.6843349 61.92,45.0639978 61.92,45.506 C61.92,46.0726695 62.0616653,46.5146651 62.345,46.832 C62.6283348,47.1493349 62.9824979,47.3958325 63.4075,47.5715 C63.8325021,47.7471675 64.2943309,47.8831662 64.793,47.9795 C65.2916692,48.0758338 65.7534979,48.1834994 66.1785,48.3025 C66.6035021,48.4215006 66.9576653,48.5773324 67.241,48.77 C67.5243348,48.9626676 67.666,49.2459981 67.666,49.62 C67.666,49.8920014 67.5980007,50.1158325 67.462,50.2915 C67.3259993,50.4671675 67.1531677,50.6003329 66.9435,50.691 C66.7338323,50.7816671 66.5043346,50.8439998 66.255,50.878 C66.0056654,50.9120002 65.7676678,50.929 65.541,50.929 C65.2463319,50.929 64.9601681,50.900667 64.6825,50.844 C64.404832,50.7873331 64.1555011,50.693834 63.9345,50.5635 C63.7134989,50.433166 63.5350007,50.2575011 63.399,50.0365 C63.2629993,49.8154989 63.1893334,49.5463349 63.178,49.229 L63.178,49.229 Z M78.17,51.966 C77.9206654,52.1133341 77.5750022,52.187 77.133,52.187 C76.7589981,52.187 76.4615011,52.0821677 76.2405,51.8725 C76.0194989,51.6628323 75.909,51.3200024 75.909,50.844 C75.5123314,51.3200024 75.0505026,51.6628323 74.5235,51.8725 C73.9964974,52.0821677 73.4270031,52.187 72.815,52.187 C72.4183314,52.187 72.0415018,52.1416671 71.6845,52.051 C71.3274982,51.9603329 71.018668,51.8186676 70.758,51.626 C70.497332,51.4333324 70.2905008,51.1811682 70.1375,50.8695 C69.9844992,50.5578318 69.908,50.1810022 69.908,49.739 C69.908,49.2403308 69.9929992,48.8323349 70.163,48.515 C70.3330009,48.1976651 70.556832,47.9398343 70.8345,47.7415 C71.1121681,47.5431657 71.4294982,47.3930005 71.7865,47.291 C72.1435018,47.1889995 72.5089981,47.1040003 72.883,47.036 C73.2796687,46.9566663 73.6564982,46.8971669 74.0135,46.8575 C74.3705018,46.8178331 74.6849987,46.761167 74.957,46.6875 C75.2290014,46.613833 75.4443326,46.5061674 75.603,46.3645 C75.7616675,46.2228326 75.841,46.0160014 75.841,45.744 C75.841,45.4266651 75.7815006,45.1716676 75.6625,44.979 C75.5434994,44.7863324 75.3905009,44.6390005 75.2035,44.537 C75.0164991,44.4349995 74.8068345,44.3670002 74.5745,44.333 C74.3421655,44.2989998 74.1126678,44.282 73.886,44.282 C73.273997,44.282 72.7640021,44.3981655 72.356,44.6305 C71.947998,44.8628345 71.7270002,45.3019968 71.693,45.948 L70.248,45.948 C70.2706668,45.4039973 70.383999,44.9450019 70.588,44.571 C70.792001,44.1969981 71.0639983,43.8938345 71.404,43.6615 C71.7440017,43.4291655 72.1321645,43.2620005 72.5685,43.16 C73.0048355,43.0579995 73.4723309,43.007 73.971,43.007 C74.3676687,43.007 74.7614981,43.0353331 75.1525,43.092 C75.543502,43.148667 75.8976651,43.2648325 76.215,43.4405 C76.5323349,43.6161675 76.7873324,43.8626651 76.98,44.18 C77.1726676,44.4973349 77.269,44.9109975 77.269,45.421 L77.269,49.943 C77.269,50.2830017 77.2888331,50.5323325 77.3285,50.691 C77.3681669,50.8496675 77.5013322,50.929 77.728,50.929 C77.8526673,50.929 77.9999992,50.900667 78.17,50.844 L78.17,51.966 Z M75.824,47.461 C75.6426658,47.5970007 75.4046682,47.6961664 75.11,47.7585 C74.8153319,47.8208336 74.5065016,47.8718331 74.1835,47.9115 C73.8604984,47.9511669 73.5346683,47.9964997 73.206,48.0475 C72.8773317,48.0985003 72.582668,48.1806661 72.322,48.294 C72.061332,48.4073339 71.8488342,48.5688323 71.6845,48.7785 C71.5201659,48.9881677 71.438,49.2743315 71.438,49.637 C71.438,49.8750012 71.4861662,50.0761658 71.5825,50.2405 C71.6788338,50.4048342 71.8034992,50.5379995 71.9565,50.64 C72.1095008,50.7420005 72.287999,50.8156664 72.492,50.861 C72.696001,50.9063336 72.9113322,50.929 73.138,50.929 C73.6140024,50.929 74.0219983,50.863834 74.362,50.7335 C74.7020017,50.603166 74.9796656,50.4388343 75.195,50.2405 C75.4103344,50.0421657 75.5689995,49.8268345 75.671,49.5945 C75.7730005,49.3621655 75.824,49.144001 75.824,48.94 L75.824,47.461 Z M86.685,51.252 L86.685,43.211 L85.325,43.211 L85.325,44.469 L85.308,44.469 C85.047332,43.9816642 84.684669,43.6161679 84.22,43.3725 C83.755331,43.1288321 83.2453361,43.007 82.69,43.007 C81.9306629,43.007 81.290336,43.1514986 80.769,43.4405 C80.2476641,43.7295014 79.8283349,44.0978311 79.511,44.5455 C79.1936651,44.9931689 78.9670007,45.4918306 78.831,46.0415 C78.6949993,46.5911694 78.627,47.1266641 78.627,47.648 C78.627,48.2486697 78.7091659,48.818164 78.8735,49.3565 C79.0378342,49.894836 79.2843317,50.3651647 79.613,50.7675 C79.9416683,51.1698353 80.3496642,51.4899988 80.837,51.728 C81.3243358,51.9660012 81.8966634,52.085 82.554,52.085 C83.1206695,52.085 83.6561642,51.9575013 84.1605,51.7025 C84.6648359,51.4474987 85.0416654,51.0480027 85.291,50.504 L85.325,50.504 L85.325,51.082 C85.325,51.5693358 85.2768338,52.016998 85.1805,52.425 C85.0841662,52.833002 84.9283344,53.1814986 84.713,53.4705 C84.4976656,53.7595014 84.2256683,53.9861658 83.897,54.1505 C83.5683317,54.3148342 83.1660024,54.397 82.69,54.397 C82.4519988,54.397 82.202668,54.3715003 81.942,54.3205 C81.681332,54.2694997 81.4405011,54.1873339 81.2195,54.074 C80.9984989,53.9606661 80.8115008,53.8133342 80.6585,53.632 C80.5054993,53.4506658 80.4233334,53.229668 80.412,52.969 L78.967,52.969 C78.9896668,53.4450024 79.1143322,53.8473317 79.341,54.176 C79.5676678,54.5046683 79.8538316,54.770999 80.1995,54.975 C80.5451684,55.179001 80.9304979,55.3263329 81.3555,55.417 C81.7805021,55.5076671 82.196998,55.553 82.605,55.553 C84.0103404,55.553 85.0416634,55.1960036 85.699,54.482 C86.3563366,53.7679964 86.685,52.6913405 86.685,51.252 L86.685,51.252 Z M82.639,50.827 C82.1629976,50.827 81.7663349,50.7278343 81.449,50.5295 C81.1316651,50.3311657 80.8766676,50.0705016 80.684,49.7475 C80.4913324,49.4244984 80.3553337,49.0646687 80.276,48.668 C80.1966663,48.2713314 80.157,47.8746687 80.157,47.478 C80.157,47.0586646 80.2051662,46.6563353 80.3015,46.271 C80.3978338,45.8856647 80.5508323,45.5456681 80.7605,45.251 C80.9701677,44.9563319 81.2393317,44.7211675 81.568,44.5455 C81.8966683,44.3698325 82.293331,44.282 82.758,44.282 C83.2113356,44.282 83.5966651,44.3726658 83.914,44.554 C84.2313349,44.7353342 84.4891657,44.9761652 84.6875,45.2765 C84.8858343,45.5768348 85.0303329,45.9139981 85.121,46.288 C85.2116671,46.6620019 85.257,47.0416647 85.257,47.427 C85.257,47.835002 85.2088338,48.242998 85.1125,48.651 C85.0161662,49.059002 84.866001,49.4244984 84.662,49.7475 C84.457999,50.0705016 84.188835,50.3311657 83.8545,50.5295 C83.520165,50.7278343 83.1150024,50.827 82.639,50.827 L82.639,50.827 Z M94.554,46.764 L89.505,46.764 C89.5276668,46.4239983 89.6013327,46.1038348 89.726,45.8035 C89.8506673,45.5031652 90.0206656,45.2396678 90.236,45.013 C90.4513344,44.7863322 90.7091652,44.607834 91.0095,44.4775 C91.3098349,44.347166 91.6469982,44.282 92.021,44.282 C92.3836685,44.282 92.7151652,44.347166 93.0155,44.4775 C93.3158349,44.607834 93.5764989,44.7834989 93.7975,45.0045 C94.0185011,45.2255011 94.194166,45.4889985 94.3245,45.795 C94.454834,46.1010015 94.5313332,46.4239983 94.554,46.764 L94.554,46.764 Z M95.948,49.212 L94.52,49.212 C94.3953327,49.7900029 94.137502,50.2206653 93.7465,50.504 C93.3554981,50.7873348 92.8540031,50.929 92.242,50.929 C91.7659976,50.929 91.3523351,50.8496675 91.001,50.691 C90.6496649,50.5323325 90.3606678,50.3198347 90.134,50.0535 C89.9073322,49.7871653 89.7430005,49.4811684 89.641,49.1355 C89.5389995,48.7898316 89.4936666,48.4243353 89.505,48.039 L96.084,48.039 C96.1066668,47.5063307 96.0585006,46.9453363 95.9395,46.356 C95.8204994,45.7666637 95.6051682,45.2226692 95.2935,44.724 C94.9818318,44.2253308 94.5681693,43.8145016 94.0525,43.4915 C93.5368308,43.1684984 92.8880039,43.007 92.106,43.007 C91.5053304,43.007 90.9528359,43.1203322 90.4485,43.347 C89.9441642,43.5736678 89.5078352,43.890998 89.1395,44.299 C88.7711648,44.707002 88.485001,45.1886639 88.281,45.744 C88.076999,46.2993361 87.975,46.91133 87.975,47.58 C87.9976668,48.24867 88.0968325,48.8663305 88.2725,49.433 C88.4481676,49.9996695 88.7116649,50.486998 89.063,50.895 C89.4143351,51.303002 89.8478308,51.6203322 90.3635,51.847 C90.8791693,52.0736678 91.4883298,52.187 92.191,52.187 C93.1883383,52.187 94.0156634,51.9376692 94.673,51.439 C95.3303366,50.9403308 95.7553324,50.1980049 95.948,49.212 L95.948,49.212 Z M98.054,49.229 L96.609,49.229 C96.6316668,49.7730027 96.744999,50.2348314 96.949,50.6145 C97.153001,50.9941686 97.4249983,51.3001655 97.765,51.5325 C98.1050017,51.7648345 98.4959978,51.9319995 98.938,52.034 C99.3800022,52.1360005 99.8446643,52.187 100.332,52.187 C100.774002,52.187 101.218831,52.1445004 101.6665,52.0595 C102.114169,51.9744996 102.516498,51.8243344 102.8735,51.609 C103.230502,51.3936656 103.519499,51.1103351 103.7405,50.759 C103.961501,50.4076649 104.072,49.9656693 104.072,49.433 C104.072,49.0136646 103.989834,48.6623348 103.8255,48.379 C103.661166,48.0956653 103.445835,47.8605009 103.1795,47.6735 C102.913165,47.4864991 102.607168,47.3363339 102.2615,47.223 C101.915832,47.1096661 101.561669,47.0133337 101.199,46.934 C100.858998,46.8546663 100.519002,46.778167 100.179,46.7045 C99.8389983,46.630833 99.5330014,46.5401672 99.261,46.4325 C98.9889987,46.3248328 98.7651676,46.1888342 98.5895,46.0245 C98.4138325,45.8601658 98.326,45.6533346 98.326,45.404 C98.326,45.1773322 98.3826661,44.9931674 98.496,44.8515 C98.6093339,44.7098326 98.7566658,44.5965004 98.938,44.5115 C99.1193343,44.4264996 99.3204989,44.3670002 99.5415,44.333 C99.7625011,44.2989998 99.9806656,44.282 100.196,44.282 C100.434001,44.282 100.669166,44.3074997 100.9015,44.3585 C101.133835,44.4095003 101.346332,44.4916661 101.539,44.605 C101.731668,44.7183339 101.890333,44.8684991 102.015,45.0555 C102.139667,45.2425009 102.213333,45.4776653 102.236,45.761 L103.681,45.761 C103.647,45.2283307 103.533668,44.7835018 103.341,44.4265 C103.148332,44.0694982 102.890502,43.7861677 102.5675,43.5765 C102.244498,43.3668323 101.873335,43.2195004 101.454,43.1345 C101.034665,43.0494996 100.575669,43.007 100.077,43.007 C99.6916648,43.007 99.303502,43.0551662 98.9125,43.1515 C98.5214981,43.2478338 98.1701683,43.3951657 97.8585,43.5935 C97.5468318,43.7918343 97.2918344,44.0496651 97.0935,44.367 C96.8951657,44.6843349 96.796,45.0639978 96.796,45.506 C96.796,46.0726695 96.9376653,46.5146651 97.221,46.832 C97.5043348,47.1493349 97.8584979,47.3958325 98.2835,47.5715 C98.7085022,47.7471675 99.1703309,47.8831662 99.669,47.9795 C100.167669,48.0758338 100.629498,48.1834994 101.0545,48.3025 C101.479502,48.4215006 101.833665,48.5773324 102.117,48.77 C102.400335,48.9626676 102.542,49.2459981 102.542,49.62 C102.542,49.8920014 102.474001,50.1158325 102.338,50.2915 C102.201999,50.4671675 102.029168,50.6003329 101.8195,50.691 C101.609832,50.7816671 101.380335,50.8439998 101.131,50.878 C100.881665,50.9120002 100.643668,50.929 100.417,50.929 C100.122332,50.929 99.8361681,50.900667 99.5585,50.844 C99.280832,50.7873331 99.0315011,50.693834 98.8105,50.5635 C98.5894989,50.433166 98.4110007,50.2575011 98.275,50.0365 C98.1389993,49.8154989 98.0653334,49.5463349 98.054,49.229 L98.054,49.229 Z" id="Return-Value" fill="#0076FF"></path>
                            <path d="M358.390325,50.6178862 L358.390325,41.046748 L361.154553,41.046748 C361.914719,41.046748 362.55394,41.1532848 363.072236,41.3663618 C363.590531,41.5794387 364.013799,41.8904112 364.342053,42.2992886 C364.670306,42.708166 364.906415,43.2034185 365.050386,43.785061 C365.194357,44.3667035 365.266341,45.0260803 365.266341,45.7632114 C365.266341,46.5233778 365.188598,47.1712372 365.03311,47.7068089 C364.877621,48.2423807 364.678944,48.6886839 364.437073,49.0457317 C364.195202,49.4027796 363.921661,49.6849583 363.616443,49.8922764 C363.311225,50.0995945 363.003132,50.2579602 362.692154,50.367378 C362.381177,50.4767959 362.087481,50.5459009 361.811057,50.5746951 C361.534633,50.6034893 361.304283,50.6178862 361.12,50.6178862 L358.390325,50.6178862 Z M356.749065,39.6646341 L356.749065,52 L360.981789,52 C362.006861,52 362.893709,51.8560313 363.642358,51.5680894 C364.391006,51.2801476 365.007193,50.8626382 365.490935,50.3155488 C365.974677,49.7684593 366.33172,49.0946856 366.562073,48.2942073 C366.792427,47.4937291 366.907602,46.5752084 366.907602,45.5386179 C366.907602,43.5575782 366.395073,42.0833382 365.37,41.1158537 C364.344927,40.1483691 362.882205,39.6646341 360.981789,39.6646341 L356.749065,39.6646341 Z M374.462032,46.6788618 L369.330935,46.6788618 C369.35397,46.3333316 369.428834,46.0079622 369.555528,45.7027439 C369.682223,45.3975256 369.854985,45.1297437 370.073821,44.8993902 C370.292657,44.6690368 370.55468,44.4876362 370.859898,44.3551829 C371.165117,44.2227297 371.507762,44.1565041 371.887846,44.1565041 C372.256411,44.1565041 372.593298,44.2227297 372.898516,44.3551829 C373.203735,44.4876362 373.468637,44.6661574 373.693232,44.890752 C373.917826,45.1153467 374.096348,45.3831285 374.228801,45.6941057 C374.361254,46.0050829 374.438997,46.3333316 374.462032,46.6788618 L374.462032,46.6788618 Z M375.878699,49.1666667 L374.42748,49.1666667 C374.300785,49.754068 374.038762,50.191733 373.641402,50.4796748 C373.244043,50.7676166 372.734393,50.9115854 372.112439,50.9115854 C371.628697,50.9115854 371.208308,50.8309629 370.85126,50.6697154 C370.494212,50.508468 370.200516,50.2925149 369.970163,50.0218496 C369.739809,49.7511843 369.572805,49.4402118 369.469146,49.0889228 C369.365487,48.7376337 369.319417,48.3661944 369.330935,47.9745935 L376.016911,47.9745935 C376.039946,47.4332629 375.990997,46.8631466 375.870061,46.2642276 C375.749125,45.6653087 375.530293,45.1124687 375.213557,44.6056911 C374.896821,44.0989135 374.476432,43.6814041 373.952378,43.3531504 C373.428324,43.0248967 372.768947,42.8607724 371.974228,42.8607724 C371.363791,42.8607724 370.802313,42.9759474 370.289776,43.2063008 C369.77724,43.4366543 369.333816,43.7591443 368.959492,44.1737805 C368.585167,44.5884167 368.294351,45.0779105 368.087032,45.6422764 C367.879714,46.2066424 367.776057,46.8285874 367.776057,47.5081301 C367.799092,48.1876728 367.89987,48.8153765 368.078394,49.3912602 C368.256918,49.9671438 368.5247,50.4623963 368.881748,50.8770325 C369.238796,51.2916687 369.67934,51.6141587 370.203394,51.8445122 C370.727448,52.0748657 371.346514,52.1900407 372.06061,52.1900407 C373.074165,52.1900407 373.914942,51.9366557 374.582967,51.429878 C375.250992,50.9231004 375.682899,50.1687042 375.878699,49.1666667 L375.878699,49.1666667 Z M379.165854,43.0680894 L379.165854,40.3902439 L377.697358,40.3902439 L377.697358,43.0680894 L376.177033,43.0680894 L376.177033,44.3638211 L377.697358,44.3638211 L377.697358,50.0477642 C377.697358,50.4624004 377.737669,50.7964079 377.818293,51.0497967 C377.898916,51.3031855 378.022729,51.498983 378.189736,51.6371951 C378.356742,51.7754072 378.575575,51.8704266 378.84624,51.9222561 C379.116905,51.9740856 379.442275,52 379.822358,52 L380.945325,52 L380.945325,50.7042683 L380.271545,50.7042683 C380.041191,50.7042683 379.854032,50.6956302 379.710061,50.6783537 C379.56609,50.6610771 379.453794,50.6236453 379.373171,50.5660569 C379.292547,50.5084685 379.237839,50.427846 379.209045,50.324187 C379.180251,50.2205279 379.165854,50.0823179 379.165854,49.9095528 L379.165854,44.3638211 L380.945325,44.3638211 L380.945325,43.0680894 L379.165854,43.0680894 Z M390.071911,51.9654472 C389.818522,52.1151769 389.467238,52.1900407 389.018049,52.1900407 C388.637966,52.1900407 388.335631,52.0835038 388.111037,51.8704268 C387.886442,51.6573499 387.774146,51.3089455 387.774146,50.8252033 C387.371028,51.3089455 386.90169,51.6573499 386.366118,51.8704268 C385.830546,52.0835038 385.251792,52.1900407 384.629837,52.1900407 C384.226719,52.1900407 383.843762,52.1439707 383.480955,52.0518293 C383.118149,51.9596879 382.804297,51.8157191 382.53939,51.6199187 C382.274484,51.4241183 382.064289,51.1678539 381.908801,50.8511179 C381.753312,50.5343819 381.675569,50.151425 381.675569,49.7022358 C381.675569,49.1954582 381.76195,48.7808282 381.934715,48.4583333 C382.107481,48.1358385 382.334951,47.8738154 382.617134,47.6722561 C382.899317,47.4706968 383.221807,47.3180899 383.584614,47.2144309 C383.94742,47.1107718 384.31886,47.0243906 384.698943,46.9552846 C385.102062,46.8746608 385.485018,46.814194 385.847825,46.7738821 C386.210632,46.7335703 386.530243,46.6759828 386.806667,46.6011179 C387.083091,46.526253 387.301923,46.4168368 387.463171,46.2728659 C387.624418,46.1288949 387.705041,45.9187006 387.705041,45.6422764 C387.705041,45.3197816 387.644574,45.0606378 387.523638,44.8648374 C387.402703,44.669037 387.247216,44.5193095 387.057175,44.4156504 C386.867133,44.3119914 386.654059,44.2428864 386.417947,44.2083333 C386.181835,44.1737803 385.948605,44.1565041 385.718252,44.1565041 C385.096298,44.1565041 384.57801,44.2745584 384.163374,44.5106707 C383.748738,44.746783 383.524146,45.1930861 383.489593,45.8495935 L382.021098,45.8495935 C382.044133,45.2967452 382.159308,44.8302865 382.366626,44.4502033 C382.573944,44.0701201 382.850364,43.7620269 383.195894,43.5259146 C383.541424,43.2898023 383.935899,43.1199192 384.379329,43.0162602 C384.82276,42.9126011 385.297857,42.8607724 385.804634,42.8607724 C386.207753,42.8607724 386.607986,42.8895661 387.005346,42.9471545 C387.402705,43.0047428 387.762627,43.1227972 388.085122,43.3013211 C388.407617,43.4798451 388.666761,43.7303507 388.862561,44.0528455 C389.058361,44.3753404 389.15626,44.7957291 389.15626,45.3140244 L389.15626,49.9095528 C389.15626,50.255083 389.176416,50.508468 389.216728,50.6697154 C389.257039,50.8309629 389.39237,50.9115854 389.622724,50.9115854 C389.749418,50.9115854 389.899145,50.8827916 390.071911,50.8252033 L390.071911,51.9654472 Z M387.687764,47.3871951 C387.503481,47.5254072 387.261614,47.6261853 386.962154,47.6895325 C386.662695,47.7528797 386.348843,47.8047085 386.020589,47.8450203 C385.692336,47.8853322 385.361208,47.9314022 385.027195,47.9832317 C384.693183,48.0350612 384.393728,48.1185631 384.128821,48.2337398 C383.863915,48.3489166 383.647962,48.5130409 383.480955,48.7261179 C383.313949,48.9391948 383.230447,49.2300117 383.230447,49.5985772 C383.230447,49.8404484 383.279397,50.044884 383.377297,50.2118902 C383.475197,50.3788965 383.601889,50.5142271 383.757378,50.6178862 C383.912867,50.7215452 384.094267,50.796409 384.301585,50.8424797 C384.508903,50.8885504 384.727736,50.9115854 384.958089,50.9115854 C385.441832,50.9115854 385.856462,50.8453597 386.201992,50.7129065 C386.547522,50.5804533 386.829701,50.4134495 387.048537,50.2118902 C387.267372,50.010331 387.428617,49.7914985 387.532276,49.5553862 C387.635935,49.3192739 387.687764,49.097562 387.687764,48.8902439 L387.687764,47.3871951 Z M392.581626,41.4613821 L392.581626,39.6646341 L391.11313,39.6646341 L391.11313,41.4613821 L392.581626,41.4613821 Z M391.11313,43.0680894 L391.11313,52 L392.581626,52 L392.581626,43.0680894 L391.11313,43.0680894 Z M394.538496,39.6646341 L394.538496,52 L396.006992,52 L396.006992,39.6646341 L394.538496,39.6646341 Z M398.775854,49.1839431 L397.307358,49.1839431 C397.330393,49.7367914 397.445568,50.2061295 397.652886,50.5919715 C397.860204,50.9778136 398.136624,51.2887861 398.482154,51.5248984 C398.827685,51.7610107 399.225038,51.9308938 399.674228,52.0345528 C400.123417,52.1382119 400.595634,52.1900407 401.090894,52.1900407 C401.540084,52.1900407 401.992145,52.14685 402.447093,52.0604675 C402.902042,51.9740849 403.310913,51.8214781 403.67372,51.6026423 C404.036526,51.3838065 404.330222,51.095869 404.554817,50.7388211 C404.779412,50.3817733 404.891707,49.9325908 404.891707,49.3912602 C404.891707,48.9651063 404.808205,48.6080638 404.641199,48.320122 C404.474193,48.0321801 404.25536,47.793192 403.984695,47.6031504 C403.71403,47.4131088 403.403057,47.2605019 403.051768,47.1453252 C402.700479,47.0301485 402.340557,46.9322497 401.971992,46.851626 C401.626462,46.7710023 401.280937,46.6932592 400.935407,46.6183943 C400.589876,46.5435294 400.278904,46.4513894 400.00248,46.3419715 C399.726056,46.2325537 399.498585,46.0943437 399.320061,45.9273374 C399.141537,45.7603311 399.052276,45.5501368 399.052276,45.296748 C399.052276,45.0663945 399.109864,44.8792351 399.225041,44.7352642 C399.340217,44.5912933 399.489945,44.4761183 399.674228,44.3897358 C399.85851,44.3033532 400.062946,44.2428864 400.287541,44.2083333 C400.512135,44.1737803 400.733847,44.1565041 400.952683,44.1565041 C401.194554,44.1565041 401.433542,44.1824184 401.669654,44.234248 C401.905767,44.2860775 402.12172,44.3695794 402.31752,44.4847561 C402.513321,44.5999328 402.674566,44.7525397 402.80126,44.9425813 C402.927955,45.1326229 403.002818,45.371611 403.025854,45.6595528 L404.49435,45.6595528 C404.459797,45.1182222 404.344622,44.6661604 404.148821,44.3033537 C403.953021,43.940547 403.690998,43.6526095 403.362744,43.4395325 C403.03449,43.2264556 402.657292,43.0767281 402.231138,42.9903455 C401.804984,42.903963 401.338526,42.8607724 400.831748,42.8607724 C400.440147,42.8607724 400.045673,42.9097217 399.648313,43.007622 C399.250953,43.1055222 398.893911,43.2552497 398.577175,43.4568089 C398.260439,43.6583682 398.001295,43.9203913 397.799736,44.2428862 C397.598176,44.565381 397.497398,44.9512173 397.497398,45.4004065 C397.497398,45.9762901 397.641367,46.4254726 397.929309,46.7479675 C398.217251,47.0704623 398.577173,47.3209679 399.009085,47.4994919 C399.440998,47.6780158 399.910336,47.8162258 400.417114,47.914126 C400.923891,48.0120262 401.39323,48.1214425 401.825142,48.242378 C402.257055,48.3633136 402.616977,48.5216792 402.904919,48.7174797 C403.192861,48.9132801 403.336829,49.2012176 403.336829,49.5813008 C403.336829,49.857725 403.267724,50.0851956 403.129512,50.2637195 C402.9913,50.4422434 402.815658,50.5775741 402.602581,50.6697154 C402.389504,50.7618568 402.156275,50.8252031 401.902886,50.8597561 C401.649497,50.8943091 401.40763,50.9115854 401.177276,50.9115854 C400.877817,50.9115854 400.587,50.8827916 400.304817,50.8252033 C400.022634,50.7676149 399.769249,50.6725955 399.544654,50.5401423 C399.32006,50.407689 399.138659,50.2291678 399.000447,50.0045732 C398.862235,49.7799786 398.787371,49.5064379 398.775854,49.1839431 L398.775854,49.1839431 Z" id="Edit" fill="#0076FF"></path>
                            <path d="M170.977724,36.4878049 L182.746016,36.4878049 L182.746016,38.8252033 L178.193171,38.8252033 L178.193171,51 L175.510244,51 L175.510244,38.8252033 L170.977724,38.8252033 L170.977724,36.4878049 Z M190.556098,48.6219512 C190.556098,48.8658549 190.586585,49.0420049 190.647561,49.1504065 C190.708537,49.2588081 190.827099,49.3130081 191.003252,49.3130081 C191.125204,49.3130081 191.243766,49.3096206 191.358943,49.3028455 C191.47412,49.2960704 191.572357,49.2859079 191.653659,49.2723577 L191.653659,51 C191.463956,51.067751 191.213281,51.1321135 190.901626,51.1930894 C190.589971,51.2540653 190.332521,51.2845528 190.129268,51.2845528 C189.668561,51.2845528 189.282386,51.1964778 188.970732,51.0203252 C188.659077,50.8441726 188.442277,50.5392976 188.320325,50.1056911 L188.3,50.1056911 C187.839293,50.5121972 187.290518,50.8102972 186.653659,51 C186.016799,51.1897028 185.393499,51.2845528 184.78374,51.2845528 C184.309483,51.2845528 183.85217,51.2201903 183.411789,51.0914634 C182.971407,50.9627365 182.585232,50.769649 182.253252,50.5121951 C181.921272,50.2547413 181.657047,49.9329288 181.460569,49.546748 C181.264091,49.1605672 181.165854,48.7032547 181.165854,48.1747967 C181.165854,47.5108368 181.284416,46.9756118 181.521545,46.5691057 C181.758673,46.1625996 182.070323,45.8407871 182.456504,45.6036585 C182.842685,45.36653 183.276285,45.197155 183.757317,45.0955285 C184.238349,44.9939019 184.722762,44.9092144 185.210569,44.8414634 L186.30813,44.7195122 C186.579134,44.6788616 186.833197,44.6382116 187.070325,44.597561 C187.307454,44.5569104 187.510704,44.4959354 187.680081,44.4146341 C187.849459,44.3333329 187.984959,44.2215454 188.086585,44.0792683 C188.188212,43.9369912 188.239024,43.7439037 188.239024,43.5 C188.239024,43.2154457 188.171274,42.9850957 188.035772,42.8089431 C187.90027,42.6327904 187.730895,42.5006779 187.527642,42.4126016 C187.324389,42.3245253 187.104202,42.2635503 186.867073,42.2296748 C186.629945,42.1957993 186.402982,42.1788618 186.186179,42.1788618 C185.562869,42.1788618 185.054744,42.3075868 184.661789,42.5650407 C184.268833,42.8224945 184.045258,43.2357695 183.991057,43.804878 L181.531707,43.804878 C181.572358,43.1138177 181.738345,42.5379427 182.029675,42.0772358 C182.321004,41.6165289 182.686854,41.2472914 183.127236,40.9695122 C183.567617,40.691733 184.06558,40.495258 184.621138,40.3800813 C185.176697,40.2649046 185.745797,40.2073171 186.328455,40.2073171 C186.843363,40.2073171 187.351488,40.2649046 187.852846,40.3800813 C188.354203,40.495258 188.804741,40.6747955 189.204472,40.9186992 C189.604203,41.1626028 189.929403,41.4810278 190.180081,41.8739837 C190.43076,42.2669396 190.556098,42.7411896 190.556098,43.296748 L190.556098,48.6219512 Z M188.096748,45.8780488 C187.839294,46.0135508 187.547969,46.1117883 187.222764,46.1727642 C186.897559,46.2337401 186.579134,46.2845526 186.26748,46.3252033 L185.413821,46.4268293 C185.169917,46.4539297 184.939567,46.5013547 184.722764,46.5691057 C184.505961,46.6368567 184.316261,46.7283192 184.153659,46.8434959 C183.991056,46.9586727 183.858944,47.1043352 183.757317,47.2804878 C183.655691,47.4566404 183.604878,47.6666654 183.604878,47.9105691 C183.604878,48.1951234 183.676016,48.4288609 183.818293,48.6117886 C183.96057,48.7947164 184.133332,48.9369914 184.336585,49.0386179 C184.539838,49.1402444 184.756638,49.2113819 184.986992,49.2520325 C185.217345,49.2926831 185.42737,49.3130081 185.617073,49.3130081 C185.860977,49.3130081 186.128589,49.2791331 186.419919,49.2113821 C186.711248,49.1436311 186.978861,49.0386186 187.222764,48.8963415 C187.466668,48.7540643 187.673305,48.5643643 187.842683,48.3272358 C188.01206,48.0901072 188.096748,47.7953947 188.096748,47.4430894 L188.096748,45.8780488 Z M195.48,45.4715447 L191.841789,40.4918699 L194.788943,40.4918699 L196.902764,43.6422764 C197.25507,43.1138185 197.624307,42.5853685 198.010488,42.0569106 C198.396669,41.5284526 198.765906,41.0067776 199.118211,40.4918699 L201.943415,40.4918699 L198.366179,45.3495935 C199.030139,46.2845575 199.700864,47.22967 200.378374,48.1849593 C201.055884,49.1402487 201.726609,50.0785862 202.390569,51 L199.46374,51 L196.882439,47.2398374 L194.382439,51 L191.516585,51 L195.48,45.4715447 Z M221.628618,51 L219.88065,51 L219.494472,49.4349593 C218.857612,50.0989193 218.197049,50.5833318 217.512764,50.8882114 C216.828479,51.193091 216.073066,51.3455285 215.246504,51.3455285 C214.162488,51.3455285 213.190275,51.145666 212.329837,50.745935 C211.469399,50.346204 210.741087,49.8008165 210.144878,49.1097561 C209.548669,48.4186957 209.091357,47.6124707 208.772927,46.6910569 C208.454497,45.7696431 208.295285,44.7872681 208.295285,43.7439024 C208.295285,42.714087 208.454497,41.738487 208.772927,40.8170732 C209.091357,39.8956593 209.548669,39.0894343 210.144878,38.398374 C210.741087,37.7073136 211.469399,37.1585386 212.329837,36.7520325 C213.190275,36.3455264 214.162488,36.1422764 215.246504,36.1422764 C216.032416,36.1422764 216.781053,36.2506764 217.492439,36.4674797 C218.203825,36.6842829 218.837287,37.0027079 219.392846,37.4227642 C219.948404,37.8428205 220.409104,38.3712705 220.774959,39.0081301 C221.140815,39.6449896 221.371165,40.3766896 221.466016,41.203252 L218.86439,41.203252 C218.796639,40.7425451 218.654364,40.3326576 218.437561,39.9735772 C218.220758,39.6144968 217.949758,39.3163968 217.624553,39.0792683 C217.299348,38.8421397 216.933498,38.6626022 216.526992,38.5406504 C216.120486,38.4186986 215.693661,38.3577236 215.246504,38.3577236 C214.487693,38.3577236 213.837293,38.5101611 213.295285,38.8150407 C212.753276,39.1199202 212.309514,39.5230327 211.963984,40.0243902 C211.618454,40.5257478 211.364391,41.1016228 211.201789,41.7520325 C211.039186,42.4024423 210.957886,43.0663923 210.957886,43.7439024 C210.957886,44.4214126 211.039186,45.0853626 211.201789,45.7357724 C211.364391,46.3861821 211.618454,46.9620571 211.963984,47.4634146 C212.309514,47.9647722 212.753276,48.3678847 213.295285,48.6727642 C213.837293,48.9776438 214.487693,49.1300813 215.246504,49.1300813 C216.506673,49.1571817 217.468723,48.8319817 218.132683,48.1544715 C218.796643,47.4769614 219.148943,46.5420114 219.189593,45.3495935 L215.368455,45.3495935 L215.368455,43.2764228 L221.628618,43.2764228 L221.628618,51 Z M232.975285,51 L230.576911,51 L230.53626,49.800813 C230.224605,50.2615199 229.807943,50.6239824 229.28626,50.8882114 C228.764577,51.1524403 228.225965,51.2845528 227.670407,51.2845528 C226.274736,51.2845528 225.268648,50.9424153 224.652114,50.2581301 C224.03558,49.5738448 223.727317,48.5338823 223.727317,47.1382114 L223.727317,40.4918699 L226.166341,40.4918699 L226.166341,46.9146341 C226.166341,47.7953974 226.335716,48.4153099 226.674472,48.7743902 C227.013227,49.1334706 227.480702,49.3130081 228.076911,49.3130081 C228.537617,49.3130081 228.923792,49.2418706 229.235447,49.0995935 C229.547102,48.9573164 229.801164,48.7642289 229.997642,48.5203252 C230.19412,48.2764215 230.333008,47.988484 230.414309,47.6565041 C230.49561,47.3245241 230.53626,46.9620616 230.53626,46.5691057 L230.53626,40.4918699 L232.975285,40.4918699 L232.975285,51 Z M233.895122,40.4918699 L236.578049,40.4918699 L239.260976,48.0121951 L241.821951,40.4918699 L244.382927,40.4918699 L240.317886,51.5081301 C240.128183,52.0094876 239.931708,52.4803501 239.728455,52.9207317 C239.525202,53.3611133 239.28469,53.7439008 239.006911,54.0691057 C238.729131,54.3943106 238.397156,54.6483731 238.010976,54.8313008 C237.624795,55.0142286 237.147157,55.1056911 236.578049,55.1056911 C235.99539,55.1056911 235.43984,55.0650411 234.911382,54.9837398 L234.911382,52.9105691 C235.087535,52.9512197 235.29756,52.9817072 235.541463,53.0020325 C235.785367,53.0223578 235.961517,53.0325203 236.069919,53.0325203 C236.313822,53.0325203 236.517072,52.9986453 236.679675,52.9308943 C236.842277,52.8631433 236.981165,52.7682933 237.096341,52.6463415 C237.211518,52.5243896 237.306368,52.3787271 237.380894,52.2093496 C237.45542,52.0399721 237.526558,51.8536596 237.594309,51.6504065 L237.858537,50.8780488 L233.895122,40.4918699 Z" id="Small-Label" fill="#030303"></path>
                        </g>
                        <text id="Uh…-quarterly-tax-pa" stroke="none" fill="none" font-family="AvenirNext-Regular, Avenir Next" font-size="14" font-weight="normal" line-spacing="20">
                            <tspan x="226" y="382" fill="#FFFFFF">Uh… quarterly tax payments?</tspan>
                        </text>
                        <g id="Group-4" stroke="none" stroke-width="1" fill="none" fill-rule="evenodd" transform="translate(155.000000, 548.000000)">
                            <path d="M276.402512,22.0573038 C276.791069,20.7728515 277,19.4104322 277,17.9992494 L277,14.0007506 C277,6.26492836 270.732976,0 263.00221,0 L13.9977898,0 C6.27284298,0 0,6.26834954 0,14.0007506 L0,17.9992494 C0,25.7350716 6.26702396,32 13.9977898,32 L263.00221,32 C264.345203,32 265.644307,31.8105435 266.874191,31.4568748 C269.761952,37.8119495 275.832126,40 284,40 C277.644223,34.7691563 276.820789,33.3135597 276.402512,22.0573038 Z" id="Rectangle-15-Copy-7" fill="url(#linearGradient-3)"></path>
                            <text id="Why-didn’t-I-know-ab" font-family="AvenirNext-Regular, Avenir Next" font-size="14" font-weight="normal" line-spacing="20" fill="#FFFFFF">
                                <tspan x="19" y="21">Why didn’t I know about this before??</tspan>
                            </text>
                        </g>
                        <g id="Group-6" stroke="none" stroke-width="1" fill="none" fill-rule="evenodd" transform="translate(50.000000, 427.000000)">
                            <path d="M16.5717217,84.556489 C18.5206626,85.4821703 20.7009304,86 23.0022208,86 L222.997779,86 C231.28753,86 238,79.2821947 238,70.995362 L238,15.004638 C238,6.71245465 231.283277,0 222.997779,0 L23.0022208,0 C14.7124696,0 8,6.71780526 8,15.004638 L8,70.995362 C8,71.0431577 8.00022315,71.0909009 8.00066847,71.1385907 C7.9925296,83.8281702 7.66126743,85.6947295 0,92 C7.67767271,92 13.5018803,90.0667034 16.5717217,84.556489 L16.5717217,84.556489 Z" id="Rectangle-15-Copy-5" fill="#EEF2F5"></path>
                            <text id="If-you-didn’t-pay-th" font-family="AvenirNext-Regular, Avenir Next" font-size="14" font-weight="normal" line-spacing="20" fill="#000000">
                                <tspan x="37" y="27">If you didn’t pay them you </tspan>
                                <tspan x="37" y="47">now owe another $1,000 </tspan>
                                <tspan x="37" y="67">in penalties…</tspan>
                            </text>
                        </g>
                        <circle id="Oval-31" stroke="#E0E3E7" stroke-width="2" fill="#FFFFFF" fill-rule="evenodd" cx="169" cy="61" r="8"></circle>
                        <rect id="Rectangle-60" stroke="#E0E3E7" stroke-width="2" fill="#FFFFFF" fill-rule="evenodd" x="208" y="59" width="75" height="7" rx="4"></rect>
                    </g>
                </g>
            </g>
        </g>
    </g>
</svg>