<?xml version="1.0" encoding="UTF-8" standalone="no"?>
<svg width="46px" height="60px" viewBox="0 0 46 60" version="1.1" xmlns="http://www.w3.org/2000/svg" xmlns:xlink="http://www.w3.org/1999/xlink">
    <!-- Generator: Sketch 3.6.1 (26313) - http://www.bohemiancoding.com/sketch -->
    <title>robot</title>
    <desc>Created with Sketch.</desc>
    <defs></defs>
    <g id="Page-1" stroke="none" stroke-width="1" fill="none" fill-rule="evenodd">
        <g id="Accounting-course-landing-page-hifi" transform="translate(-1091.000000, -1629.000000)" fill="#0DBDFF">
            <g id="robot" transform="translate(1091.000000, 1629.000000)">
                <path d="M2,57.66 L44,57.66 L44,43.66 L2,43.66 L2,57.66 Z M45,59.662 L1,59.662 C0.448,59.662 0,59.22 0,58.66 L0,42.66 C0,42.102 0.448,41.662 1,41.662 L45,41.662 C45.552,41.662 46,42.102 46,42.66 L46,58.66 C46,59.22 45.552,59.662 45,59.662 L45,59.662 Z" id="Fill-6585"></path>
                <path d="M8,31.66 L38,31.66 L38,11.66 L8,11.66 L8,31.66 Z M39,33.66 L7,33.66 C6.448,33.66 6,33.22 6,32.662 L6,10.66 C6,10.102 6.448,9.66 7,9.66 L39,9.66 C39.552,9.66 40,10.102 40,10.66 L40,32.662 C40,33.22 39.552,33.66 39,33.66 L39,33.66 Z" id="Fill-6586"></path>
                <path d="M18,41.662 L28,41.662 L28,33.662 L18,33.662 L18,41.662 Z M29,43.66 L17,43.66 C16.448,43.66 16,43.22 16,42.66 L16,32.662 C16,32.102 16.448,31.66 17,31.66 L29,31.66 C29.552,31.66 30,32.102 30,32.662 L30,42.66 C30,43.22 29.552,43.66 29,43.66 L29,43.66 Z" id="Fill-6587"></path>
                <path d="M19.476,16.92 C19.476,18.3 18.36,19.42 16.976,19.42 C15.598,19.42 14.476,18.3 14.476,16.92 C14.476,15.52 15.598,14.42 16.976,14.42 C18.36,14.42 19.476,15.52 19.476,16.92" id="Fill-6588"></path>
                <path d="M31.976,16.92 C31.976,18.3 30.86,19.42 29.476,19.42 C28.098,19.42 26.976,18.3 26.976,16.92 C26.976,15.52 28.098,14.42 29.476,14.42 C30.86,14.42 31.976,15.52 31.976,16.92" id="Fill-6589"></path>
                <path d="M14,27.66 L32,27.66 L32,23.66 L14,23.66 L14,27.66 Z M33,29.662 L13,29.662 C12.448,29.662 12,29.22 12,28.66 L12,22.66 C12,22.102 12.448,21.66 13,21.66 L33,21.66 C33.552,21.66 34,22.102 34,22.66 L34,28.66 C34,29.22 33.552,29.662 33,29.662 L33,29.662 Z" id="Fill-6590"></path>
                <path d="M9,58.66 C8.448,58.66 8,58.22 8,57.66 L8,49.66 C8,49.102 8.448,48.66 9,48.66 C9.552,48.66 10,49.102 10,49.66 L10,57.66 C10,58.22 9.552,58.66 9,58.66" id="Fill-6591"></path>
                <path d="M37,58.66 C36.448,58.66 36,58.22 36,57.66 L36,49.66 C36,49.102 36.448,48.66 37,48.66 C37.552,48.66 38,49.102 38,49.66 L38,57.66 C38,58.22 37.552,58.66 37,58.66" id="Fill-6592"></path>
                <path d="M23,10.66 C22.448,10.66 22,10.22 22,9.66 L22,1.66 C22,1.102 22.448,0.66 23,0.66 C23.552,0.66 24,1.102 24,1.66 L24,9.66 C24,10.22 23.552,10.66 23,10.66" id="Fill-6593"></path>
            </g>
        </g>
    </g>
</svg>