<?xml version="1.0" encoding="UTF-8" standalone="no"?>
<svg width="60px" height="61px" viewBox="0 0 60 61" version="1.1" xmlns="http://www.w3.org/2000/svg" xmlns:xlink="http://www.w3.org/1999/xlink">
    <!-- Generator: Sketch 3.6.1 (26313) - http://www.bohemiancoding.com/sketch -->
    <title>safe</title>
    <desc>Created with Sketch.</desc>
    <defs></defs>
    <g id="Page-1" stroke="none" stroke-width="1" fill="none" fill-rule="evenodd">
        <g id="Accounting-course-landing-page-hifi" transform="translate(-702.000000, -1086.000000)" fill="#0DBDFF">
            <g id="safe" transform="translate(702.000000, 1086.000000)">
                <path d="M9.75,2.662 C5.476,2.662 2,6.14 2,10.42 L2,48.92 C2,53.18 5.476,56.662 9.75,56.662 L50.25,56.662 C54.524,56.662 58,53.18 58,48.92 L58,10.42 C58,6.14 54.524,2.662 50.25,2.662 L9.75,2.662 L9.75,2.662 Z M50.25,58.662 L9.75,58.662 C4.374,58.662 0,54.282 0,48.92 L0,10.42 C0,5.042 4.374,0.66 9.75,0.66 L50.25,0.66 C55.626,0.66 60,5.042 60,10.42 L60,48.92 C60,54.282 55.626,58.662 50.25,58.662 L50.25,58.662 Z" id="Fill-2067"></path>
                <path d="M30.426,13.92 C24.086,13.92 18.926,19.06 18.926,25.42 C18.926,31.76 24.086,36.92 30.426,36.92 C36.766,36.92 41.926,31.76 41.926,25.42 C41.926,19.06 36.766,13.92 30.426,13.92 L30.426,13.92 Z M30.426,38.92 C22.982,38.92 16.926,32.862 16.926,25.42 C16.926,17.96 22.982,11.92 30.426,11.92 C37.87,11.92 43.926,17.96 43.926,25.42 C43.926,32.862 37.87,38.92 30.426,38.92 L30.426,38.92 Z" id="Fill-2068"></path>
                <path d="M35.426,25.42 C35.426,28.18 33.188,30.42 30.426,30.42 C27.664,30.42 25.426,28.18 25.426,25.42 C25.426,22.64 27.664,20.42 30.426,20.42 C33.188,20.42 35.426,22.64 35.426,25.42" id="Fill-2069"></path>
                <path d="M17.926,43.92 C17.098,43.92 16.426,44.582 16.426,45.42 C16.426,46.242 17.098,46.92 17.926,46.92 C18.754,46.92 19.426,46.242 19.426,45.42 C19.426,44.582 18.754,43.92 17.926,43.92 L17.926,43.92 Z M17.926,48.92 C15.996,48.92 14.426,47.34 14.426,45.42 C14.426,43.48 15.996,41.92 17.926,41.92 C19.856,41.92 21.426,43.48 21.426,45.42 C21.426,47.34 19.856,48.92 17.926,48.92 L17.926,48.92 Z" id="Fill-2070"></path>
                <path d="M42.926,43.92 C42.098,43.92 41.426,44.582 41.426,45.42 C41.426,46.242 42.098,46.92 42.926,46.92 C43.754,46.92 44.426,46.242 44.426,45.42 C44.426,44.582 43.754,43.92 42.926,43.92 L42.926,43.92 Z M42.926,48.92 C40.996,48.92 39.426,47.34 39.426,45.42 C39.426,43.48 40.996,41.92 42.926,41.92 C44.856,41.92 46.426,43.48 46.426,45.42 C46.426,47.34 44.856,48.92 42.926,48.92 L42.926,48.92 Z" id="Fill-2071"></path>
                <path d="M20,60.66 L10,60.66 C9.448,60.66 9,60.22 9,59.662 C9,59.1 9.448,58.662 10,58.662 L20,58.662 C20.552,58.662 21,59.1 21,59.662 C21,60.22 20.552,60.66 20,60.66" id="Fill-2072"></path>
                <path d="M50,60.66 L40,60.66 C39.448,60.66 39,60.22 39,59.662 C39,59.1 39.448,58.662 40,58.662 L50,58.662 C50.552,58.662 51,59.1 51,59.662 C51,60.22 50.552,60.66 50,60.66" id="Fill-2073"></path>
            </g>
        </g>
    </g>
</svg>