<?xml version="1.0" encoding="UTF-8" standalone="no"?>
<svg width="60px" height="61px" viewBox="0 0 60 61" version="1.1" xmlns="http://www.w3.org/2000/svg" xmlns:xlink="http://www.w3.org/1999/xlink">
    <!-- Generator: Sketch 3.6.1 (26313) - http://www.bohemiancoding.com/sketch -->
    <title>software</title>
    <desc>Created with Sketch.</desc>
    <defs></defs>
    <g id="Page-1" stroke="none" stroke-width="1" fill="none" fill-rule="evenodd">
        <g id="Accounting-course-landing-page-hifi" transform="translate(-702.000000, -1632.000000)" fill="#0DBDFF">
            <g id="software" transform="translate(702.000000, 1632.000000)">
                <path d="M9.75,2.662 C5.476,2.662 2,6.14 2,10.42 L2,50.92 C2,55.18 5.476,58.662 9.75,58.662 L50.25,58.662 C54.524,58.662 58,55.18 58,50.92 L58,10.42 C58,6.14 54.524,2.662 50.25,2.662 L9.75,2.662 L9.75,2.662 Z M50.25,60.66 L9.75,60.66 C4.374,60.66 0,56.282 0,50.92 L0,10.42 C0,5.042 4.374,0.66 9.75,0.66 L50.25,0.66 C55.626,0.66 60,5.042 60,10.42 L60,50.92 C60,56.282 55.626,60.66 50.25,60.66 L50.25,60.66 Z" id="Fill-2056"></path>
                <path d="M22,14.662 L18,14.662 L18,10.662 L16,10.662 L16,14.662 L12,14.662 L12,16.662 L16,16.662 L16,20.662 L18,20.662 L18,16.662 L22,16.662 L22,14.662" id="Fill-2057"></path>
                <path d="M38,14.662 L50,14.662 L50,16.662 L38,16.662 L38,14.662 Z" id="Fill-2058"></path>
                <path d="M45.426,38.662 L47.926,38.662 L45.426,50.662 L42.926,50.662 L45.426,38.662" id="Fill-2059"></path>
                <path d="M22.926,38.662 L20.426,38.662 L17.926,42.822 L15.426,38.662 L12.926,38.662 L16.676,44.662 L12.926,50.662 L15.426,50.662 L17.926,46.5 L20.426,50.662 L22.926,50.662 L19.176,44.662 L22.926,38.662" id="Fill-2060"></path>
            </g>
        </g>
    </g>
</svg>