<?xml version="1.0" encoding="UTF-8" standalone="no"?>
<svg width="60px" height="61px" viewBox="0 0 60 61" version="1.1" xmlns="http://www.w3.org/2000/svg" xmlns:xlink="http://www.w3.org/1999/xlink">
    <!-- Generator: Sketch 3.6.1 (26313) - http://www.bohemiancoding.com/sketch -->
    <title>store</title>
    <desc>Created with Sketch.</desc>
    <defs></defs>
    <g id="Page-1" stroke="none" stroke-width="1" fill="none" fill-rule="evenodd">
        <g id="Accounting-course-landing-page-hifi" transform="translate(-309.000000, -1077.000000)" fill="#0DBDFF">
            <g id="store" transform="translate(309.000000, 1077.000000)">
                <path d="M55,60.662 L5,60.662 C4.448,60.662 4,60.22 4,59.66 L4,24.662 L6,24.662 L6,58.662 L54,58.662 L54,24.662 L56,24.662 L56,59.66 C56,60.22 55.552,60.662 55,60.662" id="Fill-5284"></path>
                <path d="M49,50.66 L11,50.66 C10.448,50.66 10,50.22 10,49.662 L10,24.662 C10,24.102 10.448,23.66 11,23.66 C11.552,23.66 12,24.102 12,24.662 L12,48.662 L48,48.662 L48,24.662 C48,24.102 48.448,23.66 49,23.66 C49.552,23.66 50,24.102 50,24.662 L50,49.662 C50,50.22 49.552,50.66 49,50.66" id="Fill-5285"></path>
                <path d="M51.476,20.42 C51.476,22.34 52.332,24.42 54.738,24.42 C57.144,24.42 58,22.34 58,20.42 L58,19.322 L52.262,2.66 L8.58,2.66 L2,19.34 L2,20.42 C2,22.7 3.644,24.42 5.114,24.42 C7.38,24.42 9.296,22.58 9.296,20.42 C9.296,19.86 9.744,19.42 10.296,19.42 C10.85,19.42 11.296,19.86 11.296,20.42 C11.296,22.58 13.17,24.42 15.386,24.42 C17.618,24.42 19.432,22.622 19.432,20.42 C19.432,19.86 19.878,19.42 20.432,19.42 C20.984,19.42 21.432,19.86 21.432,20.42 C21.432,22.622 23.236,24.42 25.456,24.42 C27.668,24.42 29.466,22.622 29.466,20.42 C29.466,19.86 29.914,19.42 30.466,19.42 C31.02,19.42 31.466,19.86 31.466,20.42 C31.466,22.622 33.264,24.42 35.472,24.42 C37.68,24.42 39.474,22.622 39.474,20.42 C39.474,19.86 39.922,19.42 40.474,19.42 C41.028,19.42 41.474,19.86 41.474,20.42 C41.474,22.622 43.27,24.42 45.476,24.42 C47.682,24.42 49.476,22.622 49.476,20.42 C49.476,19.86 49.924,19.42 50.476,19.42 C51.03,19.42 51.476,19.86 51.476,20.42 L51.476,20.42 Z M54.738,26.42 C52.82,26.42 51.262,25.46 50.352,23.9 C49.262,25.42 47.48,26.42 45.476,26.42 C43.39,26.42 41.55,25.34 40.474,23.72 C39.398,25.34 37.556,26.42 35.472,26.42 C33.384,26.42 31.542,25.34 30.466,23.72 C29.388,25.34 27.544,26.42 25.456,26.42 C23.36,26.42 21.508,25.34 20.43,23.72 C19.346,25.34 17.49,26.42 15.386,26.42 C13.246,26.42 11.362,25.322 10.274,23.66 C9.156,25.3 7.238,26.42 5.114,26.42 C2.388,26.42 0,23.602 0,20.42 L0,19.16 C0,19.04 0.024,18.92 0.07,18.8 L6.968,1.3 C7.12,0.92 7.488,0.662 7.898,0.662 L52.976,0.662 C53.404,0.662 53.784,0.942 53.922,1.34 L59.946,18.84 C59.98,18.942 60,19.04 60,19.16 L60,20.42 C60,23.94 57.836,26.42 54.738,26.42 L54.738,26.42 Z" id="Fill-5286"></path>
            </g>
        </g>
    </g>
</svg>