<?xml version="1.0" encoding="UTF-8" standalone="no"?>
<svg width="66px" height="45px" viewBox="0 0 66 45" version="1.1" xmlns="http://www.w3.org/2000/svg" xmlns:xlink="http://www.w3.org/1999/xlink">
    <!-- Generator: Sketch 3.6.1 (26313) - http://www.bohemiancoding.com/sketch -->
    <title>taxes</title>
    <desc>Created with Sketch.</desc>
    <defs></defs>
    <g id="Page-1" stroke="none" stroke-width="1" fill="none" fill-rule="evenodd">
        <g id="Accounting-course-landing-page-hifi" transform="translate(-306.000000, -1649.000000)" fill="#0DBDFF">
            <g id="taxes" transform="translate(306.000000, 1649.000000)">
                <path d="M2,42.66 L56,42.66 L56,10.66 L2,10.66 L2,42.66 Z M57,44.66 L1,44.66 C0.448,44.66 0,44.22 0,43.662 L0,9.66 C0,9.102 0.448,8.66 1,8.66 L57,8.66 C57.552,8.66 58,9.102 58,9.66 L58,43.662 C58,44.22 57.552,44.66 57,44.66 L57,44.66 Z" id="Fill-6699"></path>
                <path d="M9.5,18.66 C8.672,18.66 8,19.34 8,20.16 L8,33.162 C8,33.982 8.672,34.662 9.5,34.662 L20.5,34.662 C21.328,34.662 22,33.982 22,33.162 L22,20.16 C22,19.34 21.328,18.66 20.5,18.66 L9.5,18.66 L9.5,18.66 Z M20.5,36.66 L9.5,36.66 C7.57,36.66 6,35.082 6,33.162 L6,20.16 C6,18.24 7.57,16.662 9.5,16.662 L20.5,16.662 C22.43,16.662 24,18.24 24,20.16 L24,33.162 C24,35.082 22.43,36.66 20.5,36.66 L20.5,36.66 Z" id="Fill-6700"></path>
                <path d="M50,24.66 L28,24.66 C27.448,24.66 27,24.22 27,23.66 C27,23.102 27.448,22.662 28,22.662 L50,22.662 C50.552,22.662 51,23.102 51,23.66 C51,24.22 50.552,24.66 50,24.66" id="Fill-6701"></path>
                <path d="M50,30.66 L28,30.66 C27.448,30.66 27,30.22 27,29.66 C27,29.102 27.448,28.662 28,28.662 L50,28.662 C50.552,28.662 51,29.102 51,29.66 C51,30.22 50.552,30.66 50,30.66" id="Fill-6702"></path>
                <path d="M61,37.662 C60.448,37.662 60,37.22 60,36.66 L60,6.66 L10,6.66 C9.448,6.66 9,6.22 9,5.66 C9,5.102 9.448,4.662 10,4.662 L61,4.662 C61.552,4.662 62,5.102 62,5.66 L62,36.66 C62,37.22 61.552,37.662 61,37.662" id="Fill-6703"></path>
                <path d="M65,33.66 C64.448,33.66 64,33.22 64,32.66 L64,2.66 L14,2.66 C13.448,2.66 13,2.22 13,1.662 C13,1.102 13.448,0.66 14,0.66 L65,0.66 C65.552,0.66 66,1.102 66,1.662 L66,32.66 C66,33.22 65.552,33.66 65,33.66" id="Fill-6704"></path>
            </g>
        </g>
    </g>
</svg>